<?xml version="1.0" encoding="UTF-8" standalone="no"?><svg xmlns="http://www.w3.org/2000/svg" xmlns:xlink="http://www.w3.org/1999/xlink" contentStyleType="text/css" height="567px" preserveAspectRatio="none" style="width:1364px;height:567px;background:#FFFFFF;" version="1.1" viewBox="0 0 1364 567" width="1364px" zoomAndPan="magnify"><defs/><g><rect fill="#FFFFFF" height="416.9922" style="stroke:#181818;stroke-width:1.0;" width="10" x="282" y="87.5703"/><rect fill="#FFFFFF" height="386.6406" style="stroke:#181818;stroke-width:1.0;" width="10" x="469" y="117.9219"/><rect fill="#FFFFFF" height="286.5859" style="stroke:#181818;stroke-width:1.0;" width="10" x="659" y="148.2734"/><rect fill="#FFFFFF" height="30" style="stroke:#181818;stroke-width:1.0;" width="10" x="925.5" y="238.8438"/><rect fill="#FFFFFF" height="30.3516" style="stroke:#181818;stroke-width:1.0;" width="10" x="1158" y="324.5469"/><rect fill="none" height="121.6641" style="stroke:#000000;stroke-width:1.5;" width="765" x="593" y="283.8438"/><line style="stroke:#181818;stroke-width:0.5;stroke-dasharray:5.0,5.0;" x1="286.5" x2="286.5" y1="55.2188" y2="513.5625"/><line style="stroke:#181818;stroke-width:0.5;stroke-dasharray:5.0,5.0;" x1="473.5" x2="473.5" y1="55.2188" y2="513.5625"/><line style="stroke:#181818;stroke-width:0.5;stroke-dasharray:5.0,5.0;" x1="664" x2="664" y1="55.2188" y2="513.5625"/><line style="stroke:#181818;stroke-width:0.5;stroke-dasharray:5.0,5.0;" x1="800" x2="800" y1="55.2188" y2="513.5625"/><line style="stroke:#181818;stroke-width:0.5;stroke-dasharray:5.0,5.0;" x1="930" x2="930" y1="55.2188" y2="513.5625"/><line style="stroke:#181818;stroke-width:0.5;stroke-dasharray:5.0,5.0;" x1="1049" x2="1049" y1="196.3828" y2="513.5625"/><line style="stroke:#181818;stroke-width:0.5;stroke-dasharray:5.0,5.0;" x1="1163" x2="1163" y1="55.2188" y2="513.5625"/><line style="stroke:#181818;stroke-width:0.5;stroke-dasharray:5.0,5.0;" x1="1297" x2="1297" y1="363.8516" y2="513.5625"/><rect fill="#E2E2F0" height="31.6094" rx="2.5" ry="2.5" style="stroke:#181818;stroke-width:0.5;" width="109" x="232.5" y="22.6094"/><text fill="#000000" font-family="sans-serif" font-size="14" lengthAdjust="spacing" textLength="95" x="239.5" y="44.1426">PercursoRoute</text><rect fill="#E2E2F0" height="31.6094" rx="2.5" ry="2.5" style="stroke:#181818;stroke-width:0.5;" width="109" x="232.5" y="512.5625"/><text fill="#000000" font-family="sans-serif" font-size="14" lengthAdjust="spacing" textLength="95" x="239.5" y="534.0957">PercursoRoute</text><rect fill="#E2E2F0" height="31.6094" rx="2.5" ry="2.5" style="stroke:#181818;stroke-width:0.5;" width="137" x="405.5" y="22.6094"/><text fill="#000000" font-family="sans-serif" font-size="14" lengthAdjust="spacing" textLength="123" x="412.5" y="44.1426">:PercursoController</text><rect fill="#E2E2F0" height="31.6094" rx="2.5" ry="2.5" style="stroke:#181818;stroke-width:0.5;" width="137" x="405.5" y="512.5625"/><text fill="#000000" font-family="sans-serif" font-size="14" lengthAdjust="spacing" textLength="123" x="412.5" y="534.0957">:PercursoController</text><rect fill="#E2E2F0" height="31.6094" rx="2.5" ry="2.5" style="stroke:#181818;stroke-width:0.5;" width="122" x="603" y="22.6094"/><text fill="#000000" font-family="sans-serif" font-size="14" lengthAdjust="spacing" textLength="108" x="610" y="44.1426">:PercursoService</text><rect fill="#E2E2F0" height="31.6094" rx="2.5" ry="2.5" style="stroke:#181818;stroke-width:0.5;" width="122" x="603" y="512.5625"/><text fill="#000000" font-family="sans-serif" font-size="14" lengthAdjust="spacing" textLength="108" x="610" y="534.0957">:PercursoService</text><rect fill="#E2E2F0" height="31.6094" rx="2.5" ry="2.5" style="stroke:#181818;stroke-width:0.5;" width="131" x="735" y="22.6094"/><text fill="#000000" font-family="sans-serif" font-size="14" lengthAdjust="spacing" textLength="117" x="742" y="44.1426">percurso:Percurso</text><rect fill="#E2E2F0" height="31.6094" rx="2.5" ry="2.5" style="stroke:#181818;stroke-width:0.5;" width="131" x="735" y="512.5625"/><text fill="#000000" font-family="sans-serif" font-size="14" lengthAdjust="spacing" textLength="117" x="742" y="534.0957">percurso:Percurso</text><rect fill="#E2E2F0" height="31.6094" rx="2.5" ry="2.5" style="stroke:#181818;stroke-width:0.5;" width="109" x="876" y="22.6094"/><text fill="#000000" font-family="sans-serif" font-size="14" lengthAdjust="spacing" textLength="95" x="883" y="44.1426">:PercursoRepo</text><rect fill="#E2E2F0" height="31.6094" rx="2.5" ry="2.5" style="stroke:#181818;stroke-width:0.5;" width="109" x="876" y="512.5625"/><text fill="#000000" font-family="sans-serif" font-size="14" lengthAdjust="spacing" textLength="95" x="883" y="534.0957">:PercursoRepo</text><rect fill="#E2E2F0" height="49.2188" rx="2.5" ry="2.5" style="stroke:#181818;stroke-width:0.5;" width="109" x="995" y="512.5625"/><text fill="#000000" font-family="sans-serif" font-size="14" lengthAdjust="spacing" textLength="93" x="1003" y="534.0957">listaPercursos:</text><text fill="#000000" font-family="sans-serif" font-size="14" lengthAdjust="spacing" textLength="95" x="1002" y="551.7051">PercursoDTO[]</text><rect fill="#E2E2F0" height="31.6094" rx="2.5" ry="2.5" style="stroke:#181818;stroke-width:0.5;" width="98" x="1114" y="22.6094"/><text fill="#000000" font-family="sans-serif" font-size="14" lengthAdjust="spacing" textLength="84" x="1121" y="44.1426">PercursoMap</text><rect fill="#E2E2F0" height="31.6094" rx="2.5" ry="2.5" style="stroke:#181818;stroke-width:0.5;" width="98" x="1114" y="512.5625"/><text fill="#000000" font-family="sans-serif" font-size="14" lengthAdjust="spacing" textLength="84" x="1121" y="534.0957">PercursoMap</text><rect fill="#E2E2F0" height="31.6094" rx="2.5" ry="2.5" style="stroke:#181818;stroke-width:0.5;" width="101" x="1247" y="512.5625"/><text fill="#000000" font-family="sans-serif" font-size="14" lengthAdjust="spacing" textLength="87" x="1254" y="534.0957">PercursoDTO</text><rect fill="#FFFFFF" height="416.9922" style="stroke:#181818;stroke-width:1.0;" width="10" x="282" y="87.5703"/><rect fill="#FFFFFF" height="386.6406" style="stroke:#181818;stroke-width:1.0;" width="10" x="469" y="117.9219"/><rect fill="#FFFFFF" height="286.5859" style="stroke:#181818;stroke-width:1.0;" width="10" x="659" y="148.2734"/><rect fill="#FFFFFF" height="30" style="stroke:#181818;stroke-width:1.0;" width="10" x="925.5" y="238.8438"/><rect fill="#FFFFFF" height="30.3516" style="stroke:#181818;stroke-width:1.0;" width="10" x="1158" y="324.5469"/><ellipse cx="4.5" cy="86.8203" fill="none" rx="4" ry="4" style="stroke:#181818;stroke-width:1.5;"/><polygon fill="#181818" points="270,83.5703,280,87.5703,270,91.5703,274,87.5703" style="stroke:#181818;stroke-width:1.0;"/><line style="stroke:#181818;stroke-width:1.0;" x1="9" x2="276" y1="87.5703" y2="87.5703"/><text fill="#000000" font-family="sans-serif" font-size="13" font-weight="bold" lengthAdjust="spacing" textLength="7" x="12" y="82.7139">1</text><text fill="#000000" font-family="sans-serif" font-size="13" lengthAdjust="spacing" textLength="244" x="23" y="82.7139">GET(.../api/percurso/percursosExistentes)</text><polygon fill="#181818" points="457,113.9219,467,117.9219,457,121.9219,461,117.9219" style="stroke:#181818;stroke-width:1.0;"/><line style="stroke:#181818;stroke-width:1.0;" x1="292" x2="463" y1="117.9219" y2="117.9219"/><text fill="#000000" font-family="sans-serif" font-size="13" font-weight="bold" lengthAdjust="spacing" textLength="7" x="299" y="113.0654">2</text><text fill="#000000" font-family="sans-serif" font-size="13" lengthAdjust="spacing" textLength="147" x="310" y="113.0654">getPercursosExistentes()</text><polygon fill="#181818" points="647,144.2734,657,148.2734,647,152.2734,651,148.2734" style="stroke:#181818;stroke-width:1.0;"/><line style="stroke:#181818;stroke-width:1.0;" x1="479" x2="653" y1="148.2734" y2="148.2734"/><text fill="#000000" font-family="sans-serif" font-size="13" font-weight="bold" lengthAdjust="spacing" textLength="7" x="486" y="143.417">3</text><text fill="#000000" font-family="sans-serif" font-size="13" lengthAdjust="spacing" textLength="150" x="497" y="143.417">listarPercursosExistente()</text><polygon fill="#181818" points="983,174.625,993,178.625,983,182.625,987,178.625" style="stroke:#181818;stroke-width:1.0;"/><line style="stroke:#181818;stroke-width:1.0;" x1="669" x2="989" y1="178.625" y2="178.625"/><text fill="#000000" font-family="sans-serif" font-size="13" font-weight="bold" lengthAdjust="spacing" textLength="7" x="676" y="173.7686">4</text><text fill="#000000" font-family="sans-serif" font-size="13" lengthAdjust="spacing" textLength="44" x="687" y="173.7686">create()</text><rect fill="#E2E2F0" height="49.2188" rx="2.5" ry="2.5" style="stroke:#181818;stroke-width:0.5;" width="109" x="995" y="156.2734"/><text fill="#000000" font-family="sans-serif" font-size="14" lengthAdjust="spacing" textLength="93" x="1003" y="177.8066">listaPercursos:</text><text fill="#000000" font-family="sans-serif" font-size="14" lengthAdjust="spacing" textLength="95" x="1002" y="195.416">PercursoDTO[]</text><polygon fill="#181818" points="913.5,234.8438,923.5,238.8438,913.5,242.8438,917.5,238.8438" style="stroke:#181818;stroke-width:1.0;"/><line style="stroke:#181818;stroke-width:1.0;" x1="669" x2="919.5" y1="238.8438" y2="238.8438"/><text fill="#000000" font-family="sans-serif" font-size="13" font-weight="bold" lengthAdjust="spacing" textLength="7" x="676" y="233.9873">5</text><text fill="#000000" font-family="sans-serif" font-size="13" lengthAdjust="spacing" textLength="43" x="687" y="233.9873">findAll()</text><path d="M593,283.8438 L666,283.8438 L666,292.1953 L656,302.1953 L593,302.1953 L593,283.8438 " fill="#EEEEEE" style="stroke:#000000;stroke-width:1.5;"/><rect fill="none" height="121.6641" style="stroke:#000000;stroke-width:1.5;" width="765" x="593" y="283.8438"/><text fill="#000000" font-family="sans-serif" font-size="13" font-weight="bold" lengthAdjust="spacing" textLength="28" x="608" y="298.3389">loop</text><text fill="#000000" font-family="sans-serif" font-size="11" font-weight="bold" lengthAdjust="spacing" textLength="151" x="681" y="297.2627">[por cada percurso na lista]</text><polygon fill="#181818" points="1146,320.5469,1156,324.5469,1146,328.5469,1150,324.5469" style="stroke:#181818;stroke-width:1.0;"/><line style="stroke:#181818;stroke-width:1.0;" x1="669" x2="1152" y1="324.5469" y2="324.5469"/><text fill="#000000" font-family="sans-serif" font-size="13" font-weight="bold" lengthAdjust="spacing" textLength="7" x="676" y="319.6904">6</text><text fill="#000000" font-family="sans-serif" font-size="13" lengthAdjust="spacing" textLength="187" x="687" y="319.6904">percursoDTO = toDTO(percurso)</text><polygon fill="#181818" points="1235,350.8984,1245,354.8984,1235,358.8984,1239,354.8984" style="stroke:#181818;stroke-width:1.0;"/><line style="stroke:#181818;stroke-width:1.0;stroke-dasharray:2.0,2.0;" x1="1163" x2="1241" y1="354.8984" y2="354.8984"/><text fill="#000000" font-family="sans-serif" font-size="13" font-weight="bold" lengthAdjust="spacing" textLength="7" x="1170" y="350.042">7</text><text fill="#000000" font-family="sans-serif" font-size="13" lengthAdjust="spacing" textLength="44" x="1181" y="350.042">create()</text><rect fill="#E2E2F0" height="31.6094" rx="2.5" ry="2.5" style="stroke:#181818;stroke-width:0.5;" width="101" x="1247" y="332.5469"/><text fill="#000000" font-family="sans-serif" font-size="14" lengthAdjust="spacing" textLength="87" x="1254" y="354.0801">PercursoDTO</text><polygon fill="#181818" points="1037.5,393.5078,1047.5,397.5078,1037.5,401.5078,1041.5,397.5078" style="stroke:#181818;stroke-width:1.0;"/><line style="stroke:#181818;stroke-width:1.0;" x1="669" x2="1043.5" y1="397.5078" y2="397.5078"/><text fill="#000000" font-family="sans-serif" font-size="13" font-weight="bold" lengthAdjust="spacing" textLength="7" x="676" y="392.6514">8</text><text fill="#000000" font-family="sans-serif" font-size="13" lengthAdjust="spacing" textLength="112" x="687" y="392.6514">push(percursoDTO)</text><polygon fill="#181818" points="490,430.8594,480,434.8594,490,438.8594,486,434.8594" style="stroke:#181818;stroke-width:1.0;"/><line style="stroke:#181818;stroke-width:1.0;stroke-dasharray:2.0,2.0;" x1="484" x2="663" y1="434.8594" y2="434.8594"/><text fill="#000000" font-family="sans-serif" font-size="13" font-weight="bold" lengthAdjust="spacing" textLength="7" x="496" y="430.0029">9</text><text fill="#000000" font-family="sans-serif" font-size="13" lengthAdjust="spacing" textLength="83" x="507" y="430.0029">listaPercursos</text><polygon fill="#181818" points="303,461.2109,293,465.2109,303,469.2109,299,465.2109" style="stroke:#181818;stroke-width:1.0;"/><line style="stroke:#181818;stroke-width:1.0;stroke-dasharray:2.0,2.0;" x1="297" x2="468" y1="465.2109" y2="465.2109"/><text fill="#000000" font-family="sans-serif" font-size="13" font-weight="bold" lengthAdjust="spacing" textLength="14" x="309" y="460.3545">10</text><text fill="#000000" font-family="sans-serif" font-size="13" lengthAdjust="spacing" textLength="83" x="327" y="460.3545">listaPercursos</text><polygon fill="#181818" points="11,491.5625,1,495.5625,11,499.5625,7,495.5625" style="stroke:#181818;stroke-width:1.0;"/><line style="stroke:#181818;stroke-width:1.0;stroke-dasharray:2.0,2.0;" x1="5" x2="281" y1="495.5625" y2="495.5625"/><text fill="#000000" font-family="sans-serif" font-size="13" font-weight="bold" lengthAdjust="spacing" textLength="14" x="17" y="490.7061">11</text><text fill="#000000" font-family="sans-serif" font-size="13" lengthAdjust="spacing" textLength="83" x="35" y="490.7061">listaPercursos</text><!--MD5=[9664a88ac10e1b58549bec738ce06ea3]
@startuml SD US11 - Todos Os Percursos

autonumber

participant "PercursoRoute" as ROUTE
participant ":PercursoController" as CTRL
participant ":PercursoService" as SERVICE
participant "percurso:Percurso" as PERCURSO
participant ":PercursoRepo" as REPO
participant "listaPercursos:\nPercursoDTO[]" as LISTA_DTO
participant "PercursoMap" as MAP
participant "PercursoDTO" as DTO





?o->ROUTE : GET(.../api/percurso/percursosExistentes)
activate ROUTE
ROUTE -> CTRL : getPercursosExistentes()
activate CTRL
CTRL -> SERVICE : listarPercursosExistente()
activate SERVICE

SERVICE -> LISTA_DTO** : create()
SERVICE -> REPO : findAll()
activate REPO
deactivate REPO
loop por cada percurso na lista

SERVICE -> MAP : percursoDTO = toDTO(percurso)
activate MAP
MAP - -> DTO** : create()
deactivate MAP
SERVICE -> LISTA_DTO : push(percursoDTO)

end
SERVICE - -> CTRL : listaPercursos
deactivate SERVICE
CTRL - -> ROUTE : listaPercursos
<- - ROUTE : listaPercursos





@enduml

PlantUML version 1.2022.7(Mon Aug 22 18:01:30 BST 2022)
(GPL source distribution)
Java Runtime: OpenJDK Runtime Environment
JVM: OpenJDK 64-Bit Server VM
Default Encoding: Cp1252
Language: pt
Country: PT
--></g></svg>