<?xml version="1.0" encoding="UTF-8" standalone="no"?><svg xmlns="http://www.w3.org/2000/svg" xmlns:xlink="http://www.w3.org/1999/xlink" contentStyleType="text/css" height="409px" preserveAspectRatio="none" style="width:1635px;height:409px;background:#FFFFFF;" version="1.1" viewBox="0 0 1635 409" width="1635px" zoomAndPan="magnify"><defs/><g><rect fill="#FFFFFF" height="294.4219" style="stroke:#181818;stroke-width:1.0;" width="10" x="461" y="69.9609"/><rect fill="#FFFFFF" height="264.0703" style="stroke:#181818;stroke-width:1.0;" width="10" x="661" y="100.3125"/><rect fill="#FFFFFF" height="164.0156" style="stroke:#181818;stroke-width:1.0;" width="10" x="1025" y="130.6641"/><rect fill="#FFFFFF" height="30.3516" style="stroke:#181818;stroke-width:1.0;" width="10" x="1326" y="161.0156"/><rect fill="#FFFFFF" height="30.3516" style="stroke:#181818;stroke-width:1.0;" width="10" x="1439.5" y="221.7188"/><line style="stroke:#181818;stroke-width:0.5;stroke-dasharray:5.0,5.0;" x1="465.5" x2="465.5" y1="37.6094" y2="373.3828"/><line style="stroke:#181818;stroke-width:0.5;stroke-dasharray:5.0,5.0;" x1="665.5" x2="665.5" y1="37.6094" y2="373.3828"/><line style="stroke:#181818;stroke-width:0.5;stroke-dasharray:5.0,5.0;" x1="1030" x2="1030" y1="37.6094" y2="373.3828"/><line style="stroke:#181818;stroke-width:0.5;stroke-dasharray:5.0,5.0;" x1="1330.5" x2="1330.5" y1="37.6094" y2="373.3828"/><line style="stroke:#181818;stroke-width:0.5;stroke-dasharray:5.0,5.0;" x1="1444.5" x2="1444.5" y1="37.6094" y2="373.3828"/><line style="stroke:#181818;stroke-width:0.5;stroke-dasharray:5.0,5.0;" x1="1578.5" x2="1578.5" y1="261.0234" y2="373.3828"/><rect fill="#E2E2F0" height="31.6094" rx="2.5" ry="2.5" style="stroke:#181818;stroke-width:0.5;" width="109" x="411.5" y="5"/><text fill="#000000" font-family="sans-serif" font-size="14" lengthAdjust="spacing" textLength="95" x="418.5" y="26.5332">PercursoRoute</text><rect fill="#E2E2F0" height="31.6094" rx="2.5" ry="2.5" style="stroke:#181818;stroke-width:0.5;" width="109" x="411.5" y="372.3828"/><text fill="#000000" font-family="sans-serif" font-size="14" lengthAdjust="spacing" textLength="95" x="418.5" y="393.916">PercursoRoute</text><rect fill="#E2E2F0" height="31.6094" rx="2.5" ry="2.5" style="stroke:#181818;stroke-width:0.5;" width="137" x="597.5" y="5"/><text fill="#000000" font-family="sans-serif" font-size="14" lengthAdjust="spacing" textLength="123" x="604.5" y="26.5332">:PercursoController</text><rect fill="#E2E2F0" height="31.6094" rx="2.5" ry="2.5" style="stroke:#181818;stroke-width:0.5;" width="137" x="597.5" y="372.3828"/><text fill="#000000" font-family="sans-serif" font-size="14" lengthAdjust="spacing" textLength="123" x="604.5" y="393.916">:PercursoController</text><rect fill="#E2E2F0" height="31.6094" rx="2.5" ry="2.5" style="stroke:#181818;stroke-width:0.5;" width="122" x="969" y="5"/><text fill="#000000" font-family="sans-serif" font-size="14" lengthAdjust="spacing" textLength="108" x="976" y="26.5332">:PercursoService</text><rect fill="#E2E2F0" height="31.6094" rx="2.5" ry="2.5" style="stroke:#181818;stroke-width:0.5;" width="122" x="969" y="372.3828"/><text fill="#000000" font-family="sans-serif" font-size="14" lengthAdjust="spacing" textLength="108" x="976" y="393.916">:PercursoService</text><rect fill="#E2E2F0" height="31.6094" rx="2.5" ry="2.5" style="stroke:#181818;stroke-width:0.5;" width="109" x="1276.5" y="5"/><text fill="#000000" font-family="sans-serif" font-size="14" lengthAdjust="spacing" textLength="95" x="1283.5" y="26.5332">:PercursoRepo</text><rect fill="#E2E2F0" height="31.6094" rx="2.5" ry="2.5" style="stroke:#181818;stroke-width:0.5;" width="109" x="1276.5" y="372.3828"/><text fill="#000000" font-family="sans-serif" font-size="14" lengthAdjust="spacing" textLength="95" x="1283.5" y="393.916">:PercursoRepo</text><rect fill="#E2E2F0" height="31.6094" rx="2.5" ry="2.5" style="stroke:#181818;stroke-width:0.5;" width="98" x="1395.5" y="5"/><text fill="#000000" font-family="sans-serif" font-size="14" lengthAdjust="spacing" textLength="84" x="1402.5" y="26.5332">PercursoMap</text><rect fill="#E2E2F0" height="31.6094" rx="2.5" ry="2.5" style="stroke:#181818;stroke-width:0.5;" width="98" x="1395.5" y="372.3828"/><text fill="#000000" font-family="sans-serif" font-size="14" lengthAdjust="spacing" textLength="84" x="1402.5" y="393.916">PercursoMap</text><rect fill="#E2E2F0" height="31.6094" rx="2.5" ry="2.5" style="stroke:#181818;stroke-width:0.5;" width="101" x="1528.5" y="372.3828"/><text fill="#000000" font-family="sans-serif" font-size="14" lengthAdjust="spacing" textLength="87" x="1535.5" y="393.916">PercursoDTO</text><rect fill="#FFFFFF" height="294.4219" style="stroke:#181818;stroke-width:1.0;" width="10" x="461" y="69.9609"/><rect fill="#FFFFFF" height="264.0703" style="stroke:#181818;stroke-width:1.0;" width="10" x="661" y="100.3125"/><rect fill="#FFFFFF" height="164.0156" style="stroke:#181818;stroke-width:1.0;" width="10" x="1025" y="130.6641"/><rect fill="#FFFFFF" height="30.3516" style="stroke:#181818;stroke-width:1.0;" width="10" x="1326" y="161.0156"/><rect fill="#FFFFFF" height="30.3516" style="stroke:#181818;stroke-width:1.0;" width="10" x="1439.5" y="221.7188"/><ellipse cx="4.5" cy="69.2109" fill="none" rx="4" ry="4" style="stroke:#181818;stroke-width:1.5;"/><polygon fill="#181818" points="449,65.9609,459,69.9609,449,73.9609,453,69.9609" style="stroke:#181818;stroke-width:1.0;"/><line style="stroke:#181818;stroke-width:1.0;" x1="9" x2="455" y1="69.9609" y2="69.9609"/><text fill="#000000" font-family="sans-serif" font-size="13" font-weight="bold" lengthAdjust="spacing" textLength="7" x="12" y="65.1045">1</text><text fill="#000000" font-family="sans-serif" font-size="13" lengthAdjust="spacing" textLength="423" x="23" y="65.1045">GET(.../api/percurso/percursosPorArmazens/:idArmazemP/:idArmazemC</text><polygon fill="#181818" points="649,96.3125,659,100.3125,649,104.3125,653,100.3125" style="stroke:#181818;stroke-width:1.0;"/><line style="stroke:#181818;stroke-width:1.0;" x1="471" x2="655" y1="100.3125" y2="100.3125"/><text fill="#000000" font-family="sans-serif" font-size="13" font-weight="bold" lengthAdjust="spacing" textLength="7" x="478" y="95.4561">2</text><text fill="#000000" font-family="sans-serif" font-size="13" lengthAdjust="spacing" textLength="160" x="489" y="95.4561">getPercursosByArmazens()</text><polygon fill="#181818" points="1013,126.6641,1023,130.6641,1013,134.6641,1017,130.6641" style="stroke:#181818;stroke-width:1.0;"/><line style="stroke:#181818;stroke-width:1.0;" x1="671" x2="1019" y1="130.6641" y2="130.6641"/><text fill="#000000" font-family="sans-serif" font-size="13" font-weight="bold" lengthAdjust="spacing" textLength="7" x="678" y="125.8076">3</text><text fill="#000000" font-family="sans-serif" font-size="13" lengthAdjust="spacing" textLength="324" x="689" y="125.8076">listarPercursosByArmazens(idArmazemP,idArmazemC)</text><polygon fill="#181818" points="1314,157.0156,1324,161.0156,1314,165.0156,1318,161.0156" style="stroke:#181818;stroke-width:1.0;"/><line style="stroke:#181818;stroke-width:1.0;" x1="1035" x2="1320" y1="161.0156" y2="161.0156"/><text fill="#000000" font-family="sans-serif" font-size="13" font-weight="bold" lengthAdjust="spacing" textLength="7" x="1042" y="156.1592">4</text><text fill="#000000" font-family="sans-serif" font-size="13" lengthAdjust="spacing" textLength="261" x="1053" y="156.1592">findByArmazens(idArmazemP, idArmazemC)</text><polygon fill="#181818" points="1046,187.3672,1036,191.3672,1046,195.3672,1042,191.3672" style="stroke:#181818;stroke-width:1.0;"/><line style="stroke:#181818;stroke-width:1.0;stroke-dasharray:2.0,2.0;" x1="1040" x2="1330" y1="191.3672" y2="191.3672"/><text fill="#000000" font-family="sans-serif" font-size="13" font-weight="bold" lengthAdjust="spacing" textLength="7" x="1052" y="186.5107">5</text><text fill="#000000" font-family="sans-serif" font-size="13" lengthAdjust="spacing" textLength="50" x="1063" y="186.5107">percurso</text><polygon fill="#181818" points="1427.5,217.7188,1437.5,221.7188,1427.5,225.7188,1431.5,221.7188" style="stroke:#181818;stroke-width:1.0;"/><line style="stroke:#181818;stroke-width:1.0;" x1="1035" x2="1433.5" y1="221.7188" y2="221.7188"/><text fill="#000000" font-family="sans-serif" font-size="13" font-weight="bold" lengthAdjust="spacing" textLength="7" x="1042" y="216.8623">6</text><text fill="#000000" font-family="sans-serif" font-size="13" lengthAdjust="spacing" textLength="187" x="1053" y="216.8623">percursoDTO = toDTO(percurso)</text><polygon fill="#181818" points="1516.5,248.0703,1526.5,252.0703,1516.5,256.0703,1520.5,252.0703" style="stroke:#181818;stroke-width:1.0;"/><line style="stroke:#181818;stroke-width:1.0;stroke-dasharray:2.0,2.0;" x1="1444.5" x2="1522.5" y1="252.0703" y2="252.0703"/><text fill="#000000" font-family="sans-serif" font-size="13" font-weight="bold" lengthAdjust="spacing" textLength="7" x="1451.5" y="247.2139">7</text><text fill="#000000" font-family="sans-serif" font-size="13" lengthAdjust="spacing" textLength="44" x="1462.5" y="247.2139">create()</text><rect fill="#E2E2F0" height="31.6094" rx="2.5" ry="2.5" style="stroke:#181818;stroke-width:0.5;" width="101" x="1528.5" y="229.7188"/><text fill="#000000" font-family="sans-serif" font-size="14" lengthAdjust="spacing" textLength="87" x="1535.5" y="251.252">PercursoDTO</text><polygon fill="#181818" points="682,290.6797,672,294.6797,682,298.6797,678,294.6797" style="stroke:#181818;stroke-width:1.0;"/><line style="stroke:#181818;stroke-width:1.0;stroke-dasharray:2.0,2.0;" x1="676" x2="1029" y1="294.6797" y2="294.6797"/><text fill="#000000" font-family="sans-serif" font-size="13" font-weight="bold" lengthAdjust="spacing" textLength="7" x="688" y="289.8232">8</text><text fill="#000000" font-family="sans-serif" font-size="13" lengthAdjust="spacing" textLength="76" x="699" y="289.8232">percursoDTO</text><polygon fill="#181818" points="482,321.0313,472,325.0313,482,329.0313,478,325.0313" style="stroke:#181818;stroke-width:1.0;"/><line style="stroke:#181818;stroke-width:1.0;stroke-dasharray:2.0,2.0;" x1="476" x2="660" y1="325.0313" y2="325.0313"/><text fill="#000000" font-family="sans-serif" font-size="13" font-weight="bold" lengthAdjust="spacing" textLength="7" x="488" y="320.1748">9</text><text fill="#000000" font-family="sans-serif" font-size="13" lengthAdjust="spacing" textLength="76" x="499" y="320.1748">percursoDTO</text><polygon fill="#181818" points="11,351.3828,1,355.3828,11,359.3828,7,355.3828" style="stroke:#181818;stroke-width:1.0;"/><line style="stroke:#181818;stroke-width:1.0;stroke-dasharray:2.0,2.0;" x1="5" x2="460" y1="355.3828" y2="355.3828"/><text fill="#000000" font-family="sans-serif" font-size="13" font-weight="bold" lengthAdjust="spacing" textLength="14" x="17" y="350.5264">10</text><text fill="#000000" font-family="sans-serif" font-size="13" lengthAdjust="spacing" textLength="76" x="35" y="350.5264">percursoDTO</text><!--MD5=[2b4151a46a8620e9814ae54d58251f4e]
@startuml SD US11 - Todos Os Percursos

autonumber

participant "PercursoRoute" as ROUTE
participant ":PercursoController" as CTRL
participant ":PercursoService" as SERVICE
participant ":PercursoRepo" as REPO
participant "PercursoMap" as MAP
participant "PercursoDTO" as DTO





?o->ROUTE : GET(.../api/percurso/percursosPorArmazens/:idArmazemP/:idArmazemC
activate ROUTE
ROUTE -> CTRL : getPercursosByArmazens()
activate CTRL
CTRL -> SERVICE : listarPercursosByArmazens(idArmazemP,idArmazemC)
activate SERVICE

SERVICE -> REPO : findByArmazens(idArmazemP, idArmazemC)
activate REPO
REPO - -> SERVICE : percurso
deactivate REPO

SERVICE -> MAP : percursoDTO = toDTO(percurso)
activate MAP
MAP - -> DTO** : create()
deactivate MAP



SERVICE - -> CTRL : percursoDTO
deactivate SERVICE
CTRL - -> ROUTE : percursoDTO
<- - ROUTE : percursoDTO





@enduml

PlantUML version 1.2022.7(Mon Aug 22 18:01:30 BST 2022)
(GPL source distribution)
Java Runtime: OpenJDK Runtime Environment
JVM: OpenJDK 64-Bit Server VM
Default Encoding: Cp1252
Language: pt
Country: PT
--></g></svg>