<?xml version="1.0" encoding="UTF-8" standalone="no"?><svg xmlns="http://www.w3.org/2000/svg" xmlns:xlink="http://www.w3.org/1999/xlink" contentStyleType="text/css" height="802px" preserveAspectRatio="none" style="width:1407px;height:802px;background:#FFFFFF;" version="1.1" viewBox="0 0 1407 802" width="1407px" zoomAndPan="magnify"><defs/><g><rect fill="#FFFFFF" height="687.2344" style="stroke:#181818;stroke-width:1.0;" width="10" x="194" y="69.9609"/><rect fill="#FFFFFF" height="656.8828" style="stroke:#181818;stroke-width:1.0;" width="10" x="329" y="100.3125"/><rect fill="#FFFFFF" height="556.8281" style="stroke:#181818;stroke-width:1.0;" width="10" x="468.5" y="130.6641"/><rect fill="#FFFFFF" height="30" style="stroke:#181818;stroke-width:1.0;" width="10" x="815.5" y="161.0156"/><rect fill="#FFFFFF" height="91.0547" style="stroke:#181818;stroke-width:1.0;" width="10" x="815.5" y="462.7734"/><rect fill="#FFFFFF" height="30.3516" style="stroke:#181818;stroke-width:1.0;" width="10" x="1000.5" y="493.125"/><rect fill="#FFFFFF" height="72.9609" style="stroke:#181818;stroke-width:1.0;" width="10" x="1000.5" y="584.1797"/><rect fill="#FFFFFF" height="30" style="stroke:#181818;stroke-width:1.0;" width="10" x="1127" y="221.3672"/><rect fill="#FFFFFF" height="30" style="stroke:#181818;stroke-width:1.0;" width="10" x="1127" y="281.7188"/><rect fill="#FFFFFF" height="30" style="stroke:#181818;stroke-width:1.0;" width="10" x="1127" y="342.0703"/><rect fill="#FFFFFF" height="30" style="stroke:#181818;stroke-width:1.0;" width="10" x="1127" y="402.4219"/><line style="stroke:#181818;stroke-width:0.5;stroke-dasharray:5.0,5.0;" x1="198.5" x2="198.5" y1="37.6094" y2="766.1953"/><line style="stroke:#181818;stroke-width:0.5;stroke-dasharray:5.0,5.0;" x1="333.5" x2="333.5" y1="37.6094" y2="766.1953"/><line style="stroke:#181818;stroke-width:0.5;stroke-dasharray:5.0,5.0;" x1="473.5" x2="473.5" y1="37.6094" y2="766.1953"/><line style="stroke:#181818;stroke-width:0.5;stroke-dasharray:5.0,5.0;" x1="820" x2="820" y1="37.6094" y2="766.1953"/><line style="stroke:#181818;stroke-width:0.5;stroke-dasharray:5.0,5.0;" x1="1005.5" x2="1005.5" y1="37.6094" y2="766.1953"/><line style="stroke:#181818;stroke-width:0.5;stroke-dasharray:5.0,5.0;" x1="1131.5" x2="1131.5" y1="37.6094" y2="766.1953"/><line style="stroke:#181818;stroke-width:0.5;stroke-dasharray:5.0,5.0;" x1="1304.5" x2="1304.5" y1="623.4844" y2="766.1953"/><rect fill="#E2E2F0" height="31.6094" rx="2.5" ry="2.5" style="stroke:#181818;stroke-width:0.5;" width="113" x="142.5" y="5"/><text fill="#000000" font-family="sans-serif" font-size="14" lengthAdjust="spacing" textLength="99" x="149.5" y="26.5332">:PercursoRoute</text><rect fill="#E2E2F0" height="31.6094" rx="2.5" ry="2.5" style="stroke:#181818;stroke-width:0.5;" width="113" x="142.5" y="765.1953"/><text fill="#000000" font-family="sans-serif" font-size="14" lengthAdjust="spacing" textLength="99" x="149.5" y="786.7285">:PercursoRoute</text><rect fill="#E2E2F0" height="31.6094" rx="2.5" ry="2.5" style="stroke:#181818;stroke-width:0.5;" width="137" x="265.5" y="5"/><text fill="#000000" font-family="sans-serif" font-size="14" lengthAdjust="spacing" textLength="123" x="272.5" y="26.5332">:PercursoController</text><rect fill="#E2E2F0" height="31.6094" rx="2.5" ry="2.5" style="stroke:#181818;stroke-width:0.5;" width="137" x="265.5" y="765.1953"/><text fill="#000000" font-family="sans-serif" font-size="14" lengthAdjust="spacing" textLength="123" x="272.5" y="786.7285">:PercursoController</text><rect fill="#E2E2F0" height="31.6094" rx="2.5" ry="2.5" style="stroke:#181818;stroke-width:0.5;" width="122" x="412.5" y="5"/><text fill="#000000" font-family="sans-serif" font-size="14" lengthAdjust="spacing" textLength="108" x="419.5" y="26.5332">:PercursoService</text><rect fill="#E2E2F0" height="31.6094" rx="2.5" ry="2.5" style="stroke:#181818;stroke-width:0.5;" width="122" x="412.5" y="765.1953"/><text fill="#000000" font-family="sans-serif" font-size="14" lengthAdjust="spacing" textLength="108" x="419.5" y="786.7285">:PercursoService</text><rect fill="#E2E2F0" height="31.6094" rx="2.5" ry="2.5" style="stroke:#181818;stroke-width:0.5;" width="109" x="766" y="5"/><text fill="#000000" font-family="sans-serif" font-size="14" lengthAdjust="spacing" textLength="95" x="773" y="26.5332">:PercursoRepo</text><rect fill="#E2E2F0" height="31.6094" rx="2.5" ry="2.5" style="stroke:#181818;stroke-width:0.5;" width="109" x="766" y="765.1953"/><text fill="#000000" font-family="sans-serif" font-size="14" lengthAdjust="spacing" textLength="95" x="773" y="786.7285">:PercursoRepo</text><rect fill="#E2E2F0" height="31.6094" rx="2.5" ry="2.5" style="stroke:#181818;stroke-width:0.5;" width="102" x="954.5" y="5"/><text fill="#000000" font-family="sans-serif" font-size="14" lengthAdjust="spacing" textLength="88" x="961.5" y="26.5332">:PercursoMap</text><rect fill="#E2E2F0" height="31.6094" rx="2.5" ry="2.5" style="stroke:#181818;stroke-width:0.5;" width="102" x="954.5" y="765.1953"/><text fill="#000000" font-family="sans-serif" font-size="14" lengthAdjust="spacing" textLength="88" x="961.5" y="786.7285">:PercursoMap</text><rect fill="#E2E2F0" height="31.6094" rx="2.5" ry="2.5" style="stroke:#181818;stroke-width:0.5;" width="131" x="1066.5" y="5"/><text fill="#000000" font-family="sans-serif" font-size="14" lengthAdjust="spacing" textLength="117" x="1073.5" y="26.5332">percurso:Percurso</text><rect fill="#E2E2F0" height="31.6094" rx="2.5" ry="2.5" style="stroke:#181818;stroke-width:0.5;" width="131" x="1066.5" y="765.1953"/><text fill="#000000" font-family="sans-serif" font-size="14" lengthAdjust="spacing" textLength="117" x="1073.5" y="786.7285">percurso:Percurso</text><rect fill="#E2E2F0" height="31.6094" rx="2.5" ry="2.5" style="stroke:#181818;stroke-width:0.5;" width="194" x="1207.5" y="765.1953"/><text fill="#000000" font-family="sans-serif" font-size="14" lengthAdjust="spacing" textLength="180" x="1214.5" y="786.7285">percursoDTO:IPercursoDTO</text><rect fill="#FFFFFF" height="687.2344" style="stroke:#181818;stroke-width:1.0;" width="10" x="194" y="69.9609"/><rect fill="#FFFFFF" height="656.8828" style="stroke:#181818;stroke-width:1.0;" width="10" x="329" y="100.3125"/><rect fill="#FFFFFF" height="556.8281" style="stroke:#181818;stroke-width:1.0;" width="10" x="468.5" y="130.6641"/><rect fill="#FFFFFF" height="30" style="stroke:#181818;stroke-width:1.0;" width="10" x="815.5" y="161.0156"/><rect fill="#FFFFFF" height="91.0547" style="stroke:#181818;stroke-width:1.0;" width="10" x="815.5" y="462.7734"/><rect fill="#FFFFFF" height="30.3516" style="stroke:#181818;stroke-width:1.0;" width="10" x="1000.5" y="493.125"/><rect fill="#FFFFFF" height="72.9609" style="stroke:#181818;stroke-width:1.0;" width="10" x="1000.5" y="584.1797"/><rect fill="#FFFFFF" height="30" style="stroke:#181818;stroke-width:1.0;" width="10" x="1127" y="221.3672"/><rect fill="#FFFFFF" height="30" style="stroke:#181818;stroke-width:1.0;" width="10" x="1127" y="281.7188"/><rect fill="#FFFFFF" height="30" style="stroke:#181818;stroke-width:1.0;" width="10" x="1127" y="342.0703"/><rect fill="#FFFFFF" height="30" style="stroke:#181818;stroke-width:1.0;" width="10" x="1127" y="402.4219"/><ellipse cx="4.5" cy="69.2109" fill="none" rx="4" ry="4" style="stroke:#181818;stroke-width:1.5;"/><polygon fill="#181818" points="182,65.9609,192,69.9609,182,73.9609,186,69.9609" style="stroke:#181818;stroke-width:1.0;"/><line style="stroke:#181818;stroke-width:1.0;" x1="9" x2="188" y1="69.9609" y2="69.9609"/><text fill="#000000" font-family="sans-serif" font-size="13" font-weight="bold" lengthAdjust="spacing" textLength="7" x="12" y="65.1045">1</text><text fill="#000000" font-family="sans-serif" font-size="13" lengthAdjust="spacing" textLength="156" x="23" y="65.1045">PUT(.../api/percurso/editar)</text><polygon fill="#181818" points="317,96.3125,327,100.3125,317,104.3125,321,100.3125" style="stroke:#181818;stroke-width:1.0;"/><line style="stroke:#181818;stroke-width:1.0;" x1="204" x2="323" y1="100.3125" y2="100.3125"/><text fill="#000000" font-family="sans-serif" font-size="13" font-weight="bold" lengthAdjust="spacing" textLength="7" x="211" y="95.4561">2</text><text fill="#000000" font-family="sans-serif" font-size="13" lengthAdjust="spacing" textLength="92" x="222" y="95.4561">editarPercurso()</text><polygon fill="#181818" points="456.5,126.6641,466.5,130.6641,456.5,134.6641,460.5,130.6641" style="stroke:#181818;stroke-width:1.0;"/><line style="stroke:#181818;stroke-width:1.0;" x1="339" x2="462.5" y1="130.6641" y2="130.6641"/><text fill="#000000" font-family="sans-serif" font-size="13" font-weight="bold" lengthAdjust="spacing" textLength="7" x="346" y="125.8076">3</text><text fill="#000000" font-family="sans-serif" font-size="13" lengthAdjust="spacing" textLength="92" x="357" y="125.8076">editarPercurso()</text><polygon fill="#181818" points="803.5,157.0156,813.5,161.0156,803.5,165.0156,807.5,161.0156" style="stroke:#181818;stroke-width:1.0;"/><line style="stroke:#181818;stroke-width:1.0;" x1="478.5" x2="809.5" y1="161.0156" y2="161.0156"/><text fill="#000000" font-family="sans-serif" font-size="13" font-weight="bold" lengthAdjust="spacing" textLength="7" x="485.5" y="156.1592">4</text><text fill="#000000" font-family="sans-serif" font-size="13" lengthAdjust="spacing" textLength="307" x="496.5" y="156.1592">findByArmazens(armazemPartida,armazemChegada)</text><polygon fill="#181818" points="1115,217.3672,1125,221.3672,1115,225.3672,1119,221.3672" style="stroke:#181818;stroke-width:1.0;"/><line style="stroke:#181818;stroke-width:1.0;" x1="478.5" x2="1121" y1="221.3672" y2="221.3672"/><text fill="#000000" font-family="sans-serif" font-size="13" font-weight="bold" lengthAdjust="spacing" textLength="7" x="485.5" y="216.5107">5</text><text fill="#000000" font-family="sans-serif" font-size="13" lengthAdjust="spacing" textLength="78" x="496.5" y="216.5107">set(distancia)</text><polygon fill="#181818" points="1115,277.7188,1125,281.7188,1115,285.7188,1119,281.7188" style="stroke:#181818;stroke-width:1.0;"/><line style="stroke:#181818;stroke-width:1.0;" x1="478.5" x2="1121" y1="281.7188" y2="281.7188"/><text fill="#000000" font-family="sans-serif" font-size="13" font-weight="bold" lengthAdjust="spacing" textLength="7" x="485.5" y="276.8623">6</text><text fill="#000000" font-family="sans-serif" font-size="13" lengthAdjust="spacing" textLength="110" x="496.5" y="276.8623">set(tempoPercurso</text><polygon fill="#181818" points="1115,338.0703,1125,342.0703,1115,346.0703,1119,342.0703" style="stroke:#181818;stroke-width:1.0;"/><line style="stroke:#181818;stroke-width:1.0;" x1="478.5" x2="1121" y1="342.0703" y2="342.0703"/><text fill="#000000" font-family="sans-serif" font-size="13" font-weight="bold" lengthAdjust="spacing" textLength="7" x="485.5" y="337.2139">7</text><text fill="#000000" font-family="sans-serif" font-size="13" lengthAdjust="spacing" textLength="93" x="496.5" y="337.2139">set(tempoExtra)</text><polygon fill="#181818" points="1115,398.4219,1125,402.4219,1115,406.4219,1119,402.4219" style="stroke:#181818;stroke-width:1.0;"/><line style="stroke:#181818;stroke-width:1.0;" x1="478.5" x2="1121" y1="402.4219" y2="402.4219"/><text fill="#000000" font-family="sans-serif" font-size="13" font-weight="bold" lengthAdjust="spacing" textLength="7" x="485.5" y="397.5654">8</text><text fill="#000000" font-family="sans-serif" font-size="13" lengthAdjust="spacing" textLength="103" x="496.5" y="397.5654">set(energiaGasta)</text><polygon fill="#181818" points="803.5,458.7734,813.5,462.7734,803.5,466.7734,807.5,462.7734" style="stroke:#181818;stroke-width:1.0;"/><line style="stroke:#181818;stroke-width:1.0;" x1="478.5" x2="809.5" y1="462.7734" y2="462.7734"/><text fill="#000000" font-family="sans-serif" font-size="13" font-weight="bold" lengthAdjust="spacing" textLength="7" x="485.5" y="457.917">9</text><text fill="#000000" font-family="sans-serif" font-size="13" lengthAdjust="spacing" textLength="84" x="496.5" y="457.917">save(percurso)</text><polygon fill="#181818" points="988.5,489.125,998.5,493.125,988.5,497.125,992.5,493.125" style="stroke:#181818;stroke-width:1.0;"/><line style="stroke:#181818;stroke-width:1.0;" x1="825.5" x2="994.5" y1="493.125" y2="493.125"/><text fill="#000000" font-family="sans-serif" font-size="13" font-weight="bold" lengthAdjust="spacing" textLength="14" x="832.5" y="488.2686">10</text><text fill="#000000" font-family="sans-serif" font-size="13" lengthAdjust="spacing" textLength="138" x="850.5" y="488.2686">toPersistence(percurso)</text><polygon fill="#181818" points="836.5,519.4766,826.5,523.4766,836.5,527.4766,832.5,523.4766" style="stroke:#181818;stroke-width:1.0;"/><line style="stroke:#181818;stroke-width:1.0;stroke-dasharray:2.0,2.0;" x1="830.5" x2="1004.5" y1="523.4766" y2="523.4766"/><text fill="#000000" font-family="sans-serif" font-size="13" font-weight="bold" lengthAdjust="spacing" textLength="14" x="842.5" y="518.6201">11</text><text fill="#000000" font-family="sans-serif" font-size="13" lengthAdjust="spacing" textLength="50" x="860.5" y="518.6201">percurso</text><polygon fill="#181818" points="489.5,549.8281,479.5,553.8281,489.5,557.8281,485.5,553.8281" style="stroke:#181818;stroke-width:1.0;"/><line style="stroke:#181818;stroke-width:1.0;stroke-dasharray:2.0,2.0;" x1="483.5" x2="819.5" y1="553.8281" y2="553.8281"/><text fill="#000000" font-family="sans-serif" font-size="13" font-weight="bold" lengthAdjust="spacing" textLength="14" x="495.5" y="548.9717">12</text><text fill="#000000" font-family="sans-serif" font-size="13" lengthAdjust="spacing" textLength="50" x="513.5" y="548.9717">percurso</text><polygon fill="#181818" points="988.5,580.1797,998.5,584.1797,988.5,588.1797,992.5,584.1797" style="stroke:#181818;stroke-width:1.0;"/><line style="stroke:#181818;stroke-width:1.0;" x1="478.5" x2="994.5" y1="584.1797" y2="584.1797"/><text fill="#000000" font-family="sans-serif" font-size="13" font-weight="bold" lengthAdjust="spacing" textLength="14" x="485.5" y="579.3232">13</text><text fill="#000000" font-family="sans-serif" font-size="13" lengthAdjust="spacing" textLength="95" x="503.5" y="579.3232">toDTO(percurso)</text><polygon fill="#181818" points="1195.5,610.5313,1205.5,614.5313,1195.5,618.5313,1199.5,614.5313" style="stroke:#181818;stroke-width:1.0;"/><line style="stroke:#181818;stroke-width:1.0;" x1="1010.5" x2="1201.5" y1="614.5313" y2="614.5313"/><text fill="#000000" font-family="sans-serif" font-size="13" font-weight="bold" lengthAdjust="spacing" textLength="14" x="1017.5" y="609.6748">14</text><text fill="#000000" font-family="sans-serif" font-size="13" lengthAdjust="spacing" textLength="44" x="1035.5" y="609.6748">create()</text><rect fill="#E2E2F0" height="31.6094" rx="2.5" ry="2.5" style="stroke:#181818;stroke-width:0.5;" width="194" x="1207.5" y="592.1797"/><text fill="#000000" font-family="sans-serif" font-size="14" lengthAdjust="spacing" textLength="180" x="1214.5" y="613.7129">percursoDTO:IPercursoDTO</text><polygon fill="#181818" points="489.5,653.1406,479.5,657.1406,489.5,661.1406,485.5,657.1406" style="stroke:#181818;stroke-width:1.0;"/><line style="stroke:#181818;stroke-width:1.0;stroke-dasharray:2.0,2.0;" x1="483.5" x2="1004.5" y1="657.1406" y2="657.1406"/><text fill="#000000" font-family="sans-serif" font-size="13" font-weight="bold" lengthAdjust="spacing" textLength="14" x="495.5" y="652.2842">15</text><text fill="#000000" font-family="sans-serif" font-size="13" lengthAdjust="spacing" textLength="76" x="513.5" y="652.2842">percursoDTO</text><polygon fill="#181818" points="350,683.4922,340,687.4922,350,691.4922,346,687.4922" style="stroke:#181818;stroke-width:1.0;"/><line style="stroke:#181818;stroke-width:1.0;stroke-dasharray:2.0,2.0;" x1="344" x2="472.5" y1="687.4922" y2="687.4922"/><text fill="#000000" font-family="sans-serif" font-size="13" font-weight="bold" lengthAdjust="spacing" textLength="14" x="356" y="682.6357">16</text><text fill="#000000" font-family="sans-serif" font-size="13" lengthAdjust="spacing" textLength="76" x="374" y="682.6357">percursoDTO</text><polygon fill="#181818" points="215,713.8438,205,717.8438,215,721.8438,211,717.8438" style="stroke:#181818;stroke-width:1.0;"/><line style="stroke:#181818;stroke-width:1.0;stroke-dasharray:2.0,2.0;" x1="209" x2="328" y1="717.8438" y2="717.8438"/><text fill="#000000" font-family="sans-serif" font-size="13" font-weight="bold" lengthAdjust="spacing" textLength="14" x="221" y="712.9873">17</text><text fill="#000000" font-family="sans-serif" font-size="13" lengthAdjust="spacing" textLength="76" x="239" y="712.9873">percursoDTO</text><polygon fill="#181818" points="11,744.1953,1,748.1953,11,752.1953,7,748.1953" style="stroke:#181818;stroke-width:1.0;"/><line style="stroke:#181818;stroke-width:1.0;stroke-dasharray:2.0,2.0;" x1="5" x2="193" y1="748.1953" y2="748.1953"/><text fill="#000000" font-family="sans-serif" font-size="13" font-weight="bold" lengthAdjust="spacing" textLength="14" x="17" y="743.3389">18</text><text fill="#000000" font-family="sans-serif" font-size="13" lengthAdjust="spacing" textLength="76" x="35" y="743.3389">percursoDTO</text><!--MD5=[190402c2cf1b1f3042c999f4518c8ad1]
@startuml SSD US10 - Criar Percurso

autonumber
participant ":PercursoRoute" as ROUTE
participant ":PercursoController" as CTRL
participant ":PercursoService" as SERVICE
participant ":PercursoRepo" as REPO
participant ":PercursoMap" as MAP
participant "percurso:Percurso" as PERCURSO
participant "percursoDTO:IPercursoDTO" as DTO



?o->ROUTE : PUT(.../api/percurso/editar)
activate ROUTE
ROUTE -> CTRL : editarPercurso()
activate CTRL
CTRL -> SERVICE : editarPercurso()
activate SERVICE
SERVICE -> REPO : findByArmazens(armazemPartida,armazemChegada)
activate REPO
deactivate REPO
SERVICE -> PERCURSO : set(distancia)
activate PERCURSO
deactivate PERCURSO
SERVICE -> PERCURSO : set(tempoPercurso
activate PERCURSO
deactivate PERCURSO
SERVICE -> PERCURSO : set(tempoExtra)
activate PERCURSO 
deactivate PERCURSO
SERVICE -> PERCURSO : set(energiaGasta)
activate PERCURSO 
deactivate PERCURSO
SERVICE -> REPO : save(percurso)
activate REPO
REPO -> MAP : toPersistence(percurso)
activate MAP
MAP - -> REPO : percurso
deactivate MAP
REPO - -> SERVICE : percurso
deactivate REPO
SERVICE -> MAP : toDTO(percurso)
activate MAP
MAP -> DTO** :  create()
MAP - -> SERVICE : percursoDTO
deactivate MAP
SERVICE - -> CTRL : percursoDTO
deactivate SERVICE
CTRL - -> ROUTE : percursoDTO
<- -ROUTE : percursoDTO





@enduml

PlantUML version 1.2022.7(Mon Aug 22 18:01:30 BST 2022)
(GPL source distribution)
Java Runtime: OpenJDK Runtime Environment
JVM: OpenJDK 64-Bit Server VM
Default Encoding: Cp1252
Language: pt
Country: PT
--></g></svg>