<?xml version="1.0" encoding="UTF-8" standalone="no"?><svg xmlns="http://www.w3.org/2000/svg" xmlns:xlink="http://www.w3.org/1999/xlink" contentStyleType="text/css" height="565px" preserveAspectRatio="none" style="width:1191px;height:565px;background:#FFFFFF;" version="1.1" viewBox="0 0 1191 565" width="1191px" zoomAndPan="magnify"><defs/><g><rect fill="#FFFFFF" height="372.5703" style="stroke:#181818;stroke-width:1.0;" width="10" x="64.5" y="92.6094"/><rect fill="#FFFFFF" height="30.3516" style="stroke:#181818;stroke-width:1.0;" width="10" x="388.5" y="131.3125"/><rect fill="#FFFFFF" height="273.1641" style="stroke:#181818;stroke-width:1.0;" width="10" x="388.5" y="192.0156"/><rect fill="#FFFFFF" height="212.4609" style="stroke:#181818;stroke-width:1.0;" width="10" x="589.5" y="222.3672"/><rect fill="#FFFFFF" height="151.7578" style="stroke:#181818;stroke-width:1.0;" width="10" x="752.5" y="252.7188"/><rect fill="#FFFFFF" height="91.0547" style="stroke:#181818;stroke-width:1.0;" width="10" x="940.5" y="283.0703"/><rect fill="#FFFFFF" height="30.3516" style="stroke:#181818;stroke-width:1.0;" width="10" x="1112.5" y="313.4219"/><line style="stroke:#181818;stroke-width:0.5;stroke-dasharray:5.0,5.0;" x1="69" x2="69" y1="82.6094" y2="483.1797"/><line style="stroke:#181818;stroke-width:0.5;stroke-dasharray:5.0,5.0;" x1="393.5" x2="393.5" y1="82.6094" y2="483.1797"/><line style="stroke:#181818;stroke-width:0.5;stroke-dasharray:5.0,5.0;" x1="594" x2="594" y1="82.6094" y2="483.1797"/><line style="stroke:#181818;stroke-width:0.5;stroke-dasharray:5.0,5.0;" x1="757" x2="757" y1="82.6094" y2="483.1797"/><line style="stroke:#181818;stroke-width:0.5;stroke-dasharray:5.0,5.0;" x1="945.5" x2="945.5" y1="82.6094" y2="483.1797"/><line style="stroke:#181818;stroke-width:0.5;stroke-dasharray:5.0,5.0;" x1="1117" x2="1117" y1="82.6094" y2="483.1797"/><text fill="#000000" font-family="sans-serif" font-size="14" lengthAdjust="spacing" textLength="123" x="5" y="79.5332">Gestor de Logística</text><ellipse cx="69.5" cy="13.5" fill="#E2E2F0" rx="8" ry="8" style="stroke:#181818;stroke-width:0.5;"/><path d="M69.5,21.5 L69.5,48.5 M56.5,29.5 L82.5,29.5 M69.5,48.5 L56.5,63.5 M69.5,48.5 L82.5,63.5 " fill="none" style="stroke:#181818;stroke-width:0.5;"/><text fill="#000000" font-family="sans-serif" font-size="14" lengthAdjust="spacing" textLength="123" x="5" y="496.7129">Gestor de Logística</text><ellipse cx="69.5" cy="508.2891" fill="#E2E2F0" rx="8" ry="8" style="stroke:#181818;stroke-width:0.5;"/><path d="M69.5,516.2891 L69.5,543.2891 M56.5,524.2891 L82.5,524.2891 M69.5,543.2891 L56.5,558.2891 M69.5,543.2891 L82.5,558.2891 " fill="none" style="stroke:#181818;stroke-width:0.5;"/><rect fill="#E2E2F0" height="49.2188" rx="2.5" ry="2.5" style="stroke:#181818;stroke-width:0.5;" width="124" x="331.5" y="32.3906"/><text fill="#000000" font-family="sans-serif" font-size="14" lengthAdjust="spacing" textLength="110" x="338.5" y="53.9238">&lt;&lt;System (C4)&gt;&gt;</text><text fill="#000000" font-family="sans-serif" font-size="14" lengthAdjust="spacing" textLength="78" x="354.5" y="71.5332">Visualização</text><rect fill="#E2E2F0" height="49.2188" rx="2.5" ry="2.5" style="stroke:#181818;stroke-width:0.5;" width="124" x="331.5" y="482.1797"/><text fill="#000000" font-family="sans-serif" font-size="14" lengthAdjust="spacing" textLength="110" x="338.5" y="503.7129">&lt;&lt;System (C4)&gt;&gt;</text><text fill="#000000" font-family="sans-serif" font-size="14" lengthAdjust="spacing" textLength="78" x="354.5" y="521.3223">Visualização</text><rect fill="#E2E2F0" height="31.6094" rx="2.5" ry="2.5" style="stroke:#181818;stroke-width:0.5;" width="139" x="525" y="50"/><text fill="#000000" font-family="sans-serif" font-size="14" lengthAdjust="spacing" textLength="125" x="532" y="71.5332">:PlaneamentoRoute</text><rect fill="#E2E2F0" height="31.6094" rx="2.5" ry="2.5" style="stroke:#181818;stroke-width:0.5;" width="139" x="525" y="482.1797"/><text fill="#000000" font-family="sans-serif" font-size="14" lengthAdjust="spacing" textLength="125" x="532" y="503.7129">:PlaneamentoRoute</text><rect fill="#E2E2F0" height="31.6094" rx="2.5" ry="2.5" style="stroke:#181818;stroke-width:0.5;" width="163" x="676" y="50"/><text fill="#000000" font-family="sans-serif" font-size="14" lengthAdjust="spacing" textLength="149" x="683" y="71.5332">:PlaneamentoController</text><rect fill="#E2E2F0" height="31.6094" rx="2.5" ry="2.5" style="stroke:#181818;stroke-width:0.5;" width="163" x="676" y="482.1797"/><text fill="#000000" font-family="sans-serif" font-size="14" lengthAdjust="spacing" textLength="149" x="683" y="503.7129">:PlaneamentoController</text><rect fill="#E2E2F0" height="31.6094" rx="2.5" ry="2.5" style="stroke:#181818;stroke-width:0.5;" width="148" x="871.5" y="50"/><text fill="#000000" font-family="sans-serif" font-size="14" lengthAdjust="spacing" textLength="134" x="878.5" y="71.5332">:PlaneamentoService</text><rect fill="#E2E2F0" height="31.6094" rx="2.5" ry="2.5" style="stroke:#181818;stroke-width:0.5;" width="148" x="871.5" y="482.1797"/><text fill="#000000" font-family="sans-serif" font-size="14" lengthAdjust="spacing" textLength="134" x="878.5" y="503.7129">:PlaneamentoService</text><rect fill="#E2E2F0" height="31.6094" rx="2.5" ry="2.5" style="stroke:#181818;stroke-width:0.5;" width="135" x="1050" y="50"/><text fill="#000000" font-family="sans-serif" font-size="14" lengthAdjust="spacing" textLength="121" x="1057" y="71.5332">:PlaneamentoRepo</text><rect fill="#E2E2F0" height="31.6094" rx="2.5" ry="2.5" style="stroke:#181818;stroke-width:0.5;" width="135" x="1050" y="482.1797"/><text fill="#000000" font-family="sans-serif" font-size="14" lengthAdjust="spacing" textLength="121" x="1057" y="503.7129">:PlaneamentoRepo</text><rect fill="#FFFFFF" height="372.5703" style="stroke:#181818;stroke-width:1.0;" width="10" x="64.5" y="92.6094"/><rect fill="#FFFFFF" height="30.3516" style="stroke:#181818;stroke-width:1.0;" width="10" x="388.5" y="131.3125"/><rect fill="#FFFFFF" height="273.1641" style="stroke:#181818;stroke-width:1.0;" width="10" x="388.5" y="192.0156"/><rect fill="#FFFFFF" height="212.4609" style="stroke:#181818;stroke-width:1.0;" width="10" x="589.5" y="222.3672"/><rect fill="#FFFFFF" height="151.7578" style="stroke:#181818;stroke-width:1.0;" width="10" x="752.5" y="252.7188"/><rect fill="#FFFFFF" height="91.0547" style="stroke:#181818;stroke-width:1.0;" width="10" x="940.5" y="283.0703"/><rect fill="#FFFFFF" height="30.3516" style="stroke:#181818;stroke-width:1.0;" width="10" x="1112.5" y="313.4219"/><polygon fill="#181818" points="376.5,127.3125,386.5,131.3125,376.5,135.3125,380.5,131.3125" style="stroke:#181818;stroke-width:1.0;"/><line style="stroke:#181818;stroke-width:1.0;" x1="74.5" x2="382.5" y1="131.3125" y2="131.3125"/><text fill="#000000" font-family="sans-serif" font-size="13" font-weight="bold" lengthAdjust="spacing" textLength="7" x="81.5" y="118.2803">1</text><text fill="#000000" font-family="sans-serif" font-size="13" lengthAdjust="spacing" textLength="212" x="92.5" y="110.1045">Inicia o processo de planeamento de</text><text fill="#000000" font-family="sans-serif" font-size="13" lengthAdjust="spacing" textLength="193" x="96.5" y="126.4561">frota para 1 camião num dado dia</text><polygon fill="#181818" points="85.5,157.6641,75.5,161.6641,85.5,165.6641,81.5,161.6641" style="stroke:#181818;stroke-width:1.0;"/><line style="stroke:#181818;stroke-width:1.0;stroke-dasharray:2.0,2.0;" x1="79.5" x2="392.5" y1="161.6641" y2="161.6641"/><text fill="#000000" font-family="sans-serif" font-size="13" font-weight="bold" lengthAdjust="spacing" textLength="7" x="91.5" y="156.8076">2</text><text fill="#000000" font-family="sans-serif" font-size="13" lengthAdjust="spacing" textLength="279" x="102.5" y="156.8076">Solicita os dados necessários (data e algoritmo)</text><polygon fill="#181818" points="376.5,188.0156,386.5,192.0156,376.5,196.0156,380.5,192.0156" style="stroke:#181818;stroke-width:1.0;"/><line style="stroke:#181818;stroke-width:1.0;" x1="74.5" x2="382.5" y1="192.0156" y2="192.0156"/><text fill="#000000" font-family="sans-serif" font-size="13" font-weight="bold" lengthAdjust="spacing" textLength="7" x="81.5" y="187.1592">3</text><text fill="#000000" font-family="sans-serif" font-size="13" lengthAdjust="spacing" textLength="169" x="92.5" y="187.1592">Introduz os dados solicitados</text><polygon fill="#181818" points="577.5,218.3672,587.5,222.3672,577.5,226.3672,581.5,222.3672" style="stroke:#181818;stroke-width:1.0;"/><line style="stroke:#181818;stroke-width:1.0;" x1="398.5" x2="583.5" y1="222.3672" y2="222.3672"/><text fill="#000000" font-family="sans-serif" font-size="13" font-weight="bold" lengthAdjust="spacing" textLength="7" x="405.5" y="217.5107">4</text><text fill="#000000" font-family="sans-serif" font-size="13" lengthAdjust="spacing" textLength="161" x="416.5" y="217.5107">GET(.../api/:algoritmo/:data)</text><polygon fill="#181818" points="740.5,248.7188,750.5,252.7188,740.5,256.7188,744.5,252.7188" style="stroke:#181818;stroke-width:1.0;"/><line style="stroke:#181818;stroke-width:1.0;stroke-dasharray:2.0,2.0;" x1="599.5" x2="746.5" y1="252.7188" y2="252.7188"/><text fill="#000000" font-family="sans-serif" font-size="13" font-weight="bold" lengthAdjust="spacing" textLength="7" x="606.5" y="247.8623">5</text><text fill="#000000" font-family="sans-serif" font-size="13" lengthAdjust="spacing" textLength="123" x="617.5" y="247.8623">efetuarPlaneamento()</text><polygon fill="#181818" points="928.5,279.0703,938.5,283.0703,928.5,287.0703,932.5,283.0703" style="stroke:#181818;stroke-width:1.0;"/><line style="stroke:#181818;stroke-width:1.0;" x1="762.5" x2="934.5" y1="283.0703" y2="283.0703"/><text fill="#000000" font-family="sans-serif" font-size="13" font-weight="bold" lengthAdjust="spacing" textLength="7" x="769.5" y="278.2139">6</text><text fill="#000000" font-family="sans-serif" font-size="13" lengthAdjust="spacing" textLength="148" x="780.5" y="278.2139">efetuarPlaneamento(data)</text><polygon fill="#181818" points="1100.5,309.4219,1110.5,313.4219,1100.5,317.4219,1104.5,313.4219" style="stroke:#181818;stroke-width:1.0;"/><line style="stroke:#181818;stroke-width:1.0;" x1="950.5" x2="1106.5" y1="313.4219" y2="313.4219"/><text fill="#000000" font-family="sans-serif" font-size="13" font-weight="bold" lengthAdjust="spacing" textLength="7" x="957.5" y="308.5654">7</text><text fill="#000000" font-family="sans-serif" font-size="13" lengthAdjust="spacing" textLength="132" x="968.5" y="308.5654">algoritmo(data,camiao)</text><polygon fill="#181818" points="961.5,339.7734,951.5,343.7734,961.5,347.7734,957.5,343.7734" style="stroke:#181818;stroke-width:1.0;"/><line style="stroke:#181818;stroke-width:1.0;stroke-dasharray:2.0,2.0;" x1="955.5" x2="1116.5" y1="343.7734" y2="343.7734"/><text fill="#000000" font-family="sans-serif" font-size="13" font-weight="bold" lengthAdjust="spacing" textLength="7" x="967.5" y="338.917">8</text><text fill="#000000" font-family="sans-serif" font-size="13" lengthAdjust="spacing" textLength="50" x="978.5" y="338.917">json rota</text><polygon fill="#181818" points="773.5,370.125,763.5,374.125,773.5,378.125,769.5,374.125" style="stroke:#181818;stroke-width:1.0;"/><line style="stroke:#181818;stroke-width:1.0;stroke-dasharray:2.0,2.0;" x1="767.5" x2="944.5" y1="374.125" y2="374.125"/><text fill="#000000" font-family="sans-serif" font-size="13" font-weight="bold" lengthAdjust="spacing" textLength="7" x="779.5" y="369.2686">9</text><text fill="#000000" font-family="sans-serif" font-size="13" lengthAdjust="spacing" textLength="50" x="790.5" y="369.2686">json rota</text><polygon fill="#181818" points="610.5,400.4766,600.5,404.4766,610.5,408.4766,606.5,404.4766" style="stroke:#181818;stroke-width:1.0;"/><line style="stroke:#181818;stroke-width:1.0;stroke-dasharray:2.0,2.0;" x1="604.5" x2="756.5" y1="404.4766" y2="404.4766"/><text fill="#000000" font-family="sans-serif" font-size="13" font-weight="bold" lengthAdjust="spacing" textLength="14" x="616.5" y="399.6201">10</text><text fill="#000000" font-family="sans-serif" font-size="13" lengthAdjust="spacing" textLength="44" x="634.5" y="399.6201">200 OK</text><polygon fill="#181818" points="409.5,430.8281,399.5,434.8281,409.5,438.8281,405.5,434.8281" style="stroke:#181818;stroke-width:1.0;"/><line style="stroke:#181818;stroke-width:1.0;stroke-dasharray:2.0,2.0;" x1="403.5" x2="593.5" y1="434.8281" y2="434.8281"/><text fill="#000000" font-family="sans-serif" font-size="13" font-weight="bold" lengthAdjust="spacing" textLength="14" x="415.5" y="429.9717">11</text><text fill="#000000" font-family="sans-serif" font-size="13" lengthAdjust="spacing" textLength="44" x="433.5" y="429.9717">200 OK</text><polygon fill="#181818" points="80.5,461.1797,70.5,465.1797,80.5,469.1797,76.5,465.1797" style="stroke:#181818;stroke-width:1.0;"/><line style="stroke:#181818;stroke-width:1.0;stroke-dasharray:2.0,2.0;" x1="74.5" x2="392.5" y1="465.1797" y2="465.1797"/><text fill="#000000" font-family="sans-serif" font-size="13" font-weight="bold" lengthAdjust="spacing" textLength="14" x="86.5" y="460.3232">12</text><text fill="#000000" font-family="sans-serif" font-size="13" lengthAdjust="spacing" textLength="181" x="104.5" y="460.3232">Informa o sucesso da operação</text><!--MD5=[de8e6248701f061f089a7e007c705855]
@startuml
autonumber

actor "Gestor de Logística" as gl
participant "<<System (C4)>>\nVisualização" as SYSTEM
participant ":PlaneamentoRoute" as R
participant ":PlaneamentoController" as CTRL
participant ":PlaneamentoService" as SERV
participant ":PlaneamentoRepo" as REPO

activate gl
gl -> SYSTEM:  Inicia o processo de planeamento de \n frota para 1 camião num dado dia
activate SYSTEM
SYSTEM - -> gl: Solicita os dados necessários (data e algoritmo)
deactivate SYSTEM
gl -> SYSTEM : Introduz os dados solicitados
activate SYSTEM
SYSTEM -> R : GET(.../api/:algoritmo/:data)
activate R
R - -> CTRL : efetuarPlaneamento()
activate CTRL
CTRL -> SERV: efetuarPlaneamento(data)
activate SERV
SERV -> REPO :algoritmo(data,camiao)
activate REPO
REPO - -> SERV : json rota
deactivate REPO
SERV - -> CTRL : json rota
deactivate SERV
CTRL - -> R : 200 OK 
deactivate CTRL
R - -> SYSTEM : 200 OK
deactivate R
SYSTEM - -> gl: Informa o sucesso da operação
deactivate SYSTEM
deactivate gl

@enduml

PlantUML version 1.2022.7(Mon Aug 22 18:01:30 BST 2022)
(GPL source distribution)
Java Runtime: OpenJDK Runtime Environment
JVM: OpenJDK 64-Bit Server VM
Default Encoding: Cp1252
Language: pt
Country: PT
--></g></svg>