<?xml version="1.0" encoding="UTF-8" standalone="no"?><svg xmlns="http://www.w3.org/2000/svg" xmlns:xlink="http://www.w3.org/1999/xlink" contentStyleType="text/css" height="833px" preserveAspectRatio="none" style="width:1175px;height:833px;background:#FFFFFF;" version="1.1" viewBox="0 0 1175 833" width="1175px" zoomAndPan="magnify"><defs/><g><rect fill="#FFFFFF" height="738.5859" style="stroke:#181818;stroke-width:1.0;" width="10" x="192" y="69.9609"/><rect fill="#FFFFFF" height="677.8828" style="stroke:#181818;stroke-width:1.0;" width="10" x="318" y="100.3125"/><rect fill="#FFFFFF" height="617.1797" style="stroke:#181818;stroke-width:1.0;" width="10" x="448.5" y="130.6641"/><rect fill="#FFFFFF" height="30" style="stroke:#181818;stroke-width:1.0;" width="10" x="638.5" y="161.0156"/><rect fill="#FFFFFF" height="91.0547" style="stroke:#181818;stroke-width:1.0;" width="10" x="638.5" y="523.125"/><rect fill="#FFFFFF" height="30.3516" style="stroke:#181818;stroke-width:1.0;" width="10" x="815.5" y="553.4766"/><rect fill="#FFFFFF" height="72.9609" style="stroke:#181818;stroke-width:1.0;" width="10" x="815.5" y="644.5313"/><rect fill="#FFFFFF" height="30" style="stroke:#181818;stroke-width:1.0;" width="10" x="927.5" y="221.3672"/><rect fill="#FFFFFF" height="30" style="stroke:#181818;stroke-width:1.0;" width="10" x="927.5" y="281.7188"/><rect fill="#FFFFFF" height="30" style="stroke:#181818;stroke-width:1.0;" width="10" x="927.5" y="342.0703"/><rect fill="#FFFFFF" height="30" style="stroke:#181818;stroke-width:1.0;" width="10" x="927.5" y="402.4219"/><rect fill="#FFFFFF" height="30" style="stroke:#181818;stroke-width:1.0;" width="10" x="927.5" y="462.7734"/><line style="stroke:#181818;stroke-width:0.5;stroke-dasharray:5.0,5.0;" x1="197" x2="197" y1="37.6094" y2="826.5469"/><line style="stroke:#181818;stroke-width:0.5;stroke-dasharray:5.0,5.0;" x1="323" x2="323" y1="37.6094" y2="826.5469"/><line style="stroke:#181818;stroke-width:0.5;stroke-dasharray:5.0,5.0;" x1="453" x2="453" y1="37.6094" y2="826.5469"/><line style="stroke:#181818;stroke-width:0.5;stroke-dasharray:5.0,5.0;" x1="643.5" x2="643.5" y1="37.6094" y2="826.5469"/><line style="stroke:#181818;stroke-width:0.5;stroke-dasharray:5.0,5.0;" x1="820" x2="820" y1="37.6094" y2="826.5469"/><line style="stroke:#181818;stroke-width:0.5;stroke-dasharray:5.0,5.0;" x1="932" x2="932" y1="37.6094" y2="826.5469"/><line style="stroke:#181818;stroke-width:0.5;stroke-dasharray:5.0,5.0;" x1="1083" x2="1083" y1="683.8359" y2="826.5469"/><rect fill="#E2E2F0" height="31.6094" rx="2.5" ry="2.5" style="stroke:#181818;stroke-width:0.5;" width="104" x="145" y="5"/><text fill="#000000" font-family="sans-serif" font-size="14" lengthAdjust="spacing" textLength="90" x="152" y="26.5332">:CamiaoRoute</text><rect fill="#E2E2F0" height="31.6094" rx="2.5" ry="2.5" style="stroke:#181818;stroke-width:0.5;" width="128" x="259" y="5"/><text fill="#000000" font-family="sans-serif" font-size="14" lengthAdjust="spacing" textLength="114" x="266" y="26.5332">:CamiaoController</text><rect fill="#E2E2F0" height="31.6094" rx="2.5" ry="2.5" style="stroke:#181818;stroke-width:0.5;" width="113" x="397" y="5"/><text fill="#000000" font-family="sans-serif" font-size="14" lengthAdjust="spacing" textLength="99" x="404" y="26.5332">:CamiaoService</text><rect fill="#E2E2F0" height="31.6094" rx="2.5" ry="2.5" style="stroke:#181818;stroke-width:0.5;" width="100" x="593.5" y="5"/><text fill="#000000" font-family="sans-serif" font-size="14" lengthAdjust="spacing" textLength="86" x="600.5" y="26.5332">:CamiaoRepo</text><rect fill="#E2E2F0" height="31.6094" rx="2.5" ry="2.5" style="stroke:#181818;stroke-width:0.5;" width="93" x="774" y="5"/><text fill="#000000" font-family="sans-serif" font-size="14" lengthAdjust="spacing" textLength="79" x="781" y="26.5332">:CamiaoMap</text><rect fill="#E2E2F0" height="31.6094" rx="2.5" ry="2.5" style="stroke:#181818;stroke-width:0.5;" width="111" x="877" y="5"/><text fill="#000000" font-family="sans-serif" font-size="14" lengthAdjust="spacing" textLength="97" x="884" y="26.5332">camiao:Camiao</text><rect fill="#FFFFFF" height="738.5859" style="stroke:#181818;stroke-width:1.0;" width="10" x="192" y="69.9609"/><rect fill="#FFFFFF" height="677.8828" style="stroke:#181818;stroke-width:1.0;" width="10" x="318" y="100.3125"/><rect fill="#FFFFFF" height="617.1797" style="stroke:#181818;stroke-width:1.0;" width="10" x="448.5" y="130.6641"/><rect fill="#FFFFFF" height="30" style="stroke:#181818;stroke-width:1.0;" width="10" x="638.5" y="161.0156"/><rect fill="#FFFFFF" height="91.0547" style="stroke:#181818;stroke-width:1.0;" width="10" x="638.5" y="523.125"/><rect fill="#FFFFFF" height="30.3516" style="stroke:#181818;stroke-width:1.0;" width="10" x="815.5" y="553.4766"/><rect fill="#FFFFFF" height="72.9609" style="stroke:#181818;stroke-width:1.0;" width="10" x="815.5" y="644.5313"/><rect fill="#FFFFFF" height="30" style="stroke:#181818;stroke-width:1.0;" width="10" x="927.5" y="221.3672"/><rect fill="#FFFFFF" height="30" style="stroke:#181818;stroke-width:1.0;" width="10" x="927.5" y="281.7188"/><rect fill="#FFFFFF" height="30" style="stroke:#181818;stroke-width:1.0;" width="10" x="927.5" y="342.0703"/><rect fill="#FFFFFF" height="30" style="stroke:#181818;stroke-width:1.0;" width="10" x="927.5" y="402.4219"/><rect fill="#FFFFFF" height="30" style="stroke:#181818;stroke-width:1.0;" width="10" x="927.5" y="462.7734"/><ellipse cx="4.5" cy="69.2109" fill="none" rx="4" ry="4" style="stroke:#181818;stroke-width:1.5;"/><polygon fill="#181818" points="180,65.9609,190,69.9609,180,73.9609,184,69.9609" style="stroke:#181818;stroke-width:1.0;"/><line style="stroke:#181818;stroke-width:1.0;" x1="9" x2="186" y1="69.9609" y2="69.9609"/><text fill="#000000" font-family="sans-serif" font-size="13" font-weight="bold" lengthAdjust="spacing" textLength="7" x="12" y="65.1045">1</text><text fill="#000000" font-family="sans-serif" font-size="13" lengthAdjust="spacing" textLength="154" x="23" y="65.1045">"PUT(.../api/camiao/editar"</text><polygon fill="#181818" points="306,96.3125,316,100.3125,306,104.3125,310,100.3125" style="stroke:#181818;stroke-width:1.0;"/><line style="stroke:#181818;stroke-width:1.0;" x1="202" x2="312" y1="100.3125" y2="100.3125"/><text fill="#000000" font-family="sans-serif" font-size="13" font-weight="bold" lengthAdjust="spacing" textLength="7" x="209" y="95.4561">2</text><text fill="#000000" font-family="sans-serif" font-size="13" lengthAdjust="spacing" textLength="84" x="220" y="95.4561">editarCamiao()</text><polygon fill="#181818" points="436.5,126.6641,446.5,130.6641,436.5,134.6641,440.5,130.6641" style="stroke:#181818;stroke-width:1.0;"/><line style="stroke:#181818;stroke-width:1.0;" x1="328" x2="442.5" y1="130.6641" y2="130.6641"/><text fill="#000000" font-family="sans-serif" font-size="13" font-weight="bold" lengthAdjust="spacing" textLength="7" x="335" y="125.8076">3</text><text fill="#000000" font-family="sans-serif" font-size="13" lengthAdjust="spacing" textLength="84" x="346" y="125.8076">editarCamiao()</text><polygon fill="#181818" points="626.5,157.0156,636.5,161.0156,626.5,165.0156,630.5,161.0156" style="stroke:#181818;stroke-width:1.0;"/><line style="stroke:#181818;stroke-width:1.0;" x1="458.5" x2="632.5" y1="161.0156" y2="161.0156"/><text fill="#000000" font-family="sans-serif" font-size="13" font-weight="bold" lengthAdjust="spacing" textLength="7" x="465.5" y="156.1592">4</text><text fill="#000000" font-family="sans-serif" font-size="13" lengthAdjust="spacing" textLength="150" x="476.5" y="156.1592">findByMatricula(matricula)</text><polygon fill="#181818" points="915.5,217.3672,925.5,221.3672,915.5,225.3672,919.5,221.3672" style="stroke:#181818;stroke-width:1.0;"/><line style="stroke:#181818;stroke-width:1.0;" x1="458.5" x2="921.5" y1="221.3672" y2="221.3672"/><text fill="#000000" font-family="sans-serif" font-size="13" font-weight="bold" lengthAdjust="spacing" textLength="7" x="465.5" y="216.5107">5</text><text fill="#000000" font-family="sans-serif" font-size="13" lengthAdjust="spacing" textLength="48" x="476.5" y="216.5107">set(tara)</text><polygon fill="#181818" points="915.5,277.7188,925.5,281.7188,915.5,285.7188,919.5,281.7188" style="stroke:#181818;stroke-width:1.0;"/><line style="stroke:#181818;stroke-width:1.0;" x1="458.5" x2="921.5" y1="281.7188" y2="281.7188"/><text fill="#000000" font-family="sans-serif" font-size="13" font-weight="bold" lengthAdjust="spacing" textLength="7" x="465.5" y="276.8623">6</text><text fill="#000000" font-family="sans-serif" font-size="13" lengthAdjust="spacing" textLength="126" x="476.5" y="276.8623">set(capacidadeCarga)</text><polygon fill="#181818" points="915.5,338.0703,925.5,342.0703,915.5,346.0703,919.5,342.0703" style="stroke:#181818;stroke-width:1.0;"/><line style="stroke:#181818;stroke-width:1.0;" x1="458.5" x2="921.5" y1="342.0703" y2="342.0703"/><text fill="#000000" font-family="sans-serif" font-size="13" font-weight="bold" lengthAdjust="spacing" textLength="7" x="465.5" y="337.2139">7</text><text fill="#000000" font-family="sans-serif" font-size="13" lengthAdjust="spacing" textLength="183" x="476.5" y="337.2139">set(tempoCarregamentoRapido)</text><polygon fill="#181818" points="915.5,398.4219,925.5,402.4219,915.5,406.4219,919.5,402.4219" style="stroke:#181818;stroke-width:1.0;"/><line style="stroke:#181818;stroke-width:1.0;" x1="458.5" x2="921.5" y1="402.4219" y2="402.4219"/><text fill="#000000" font-family="sans-serif" font-size="13" font-weight="bold" lengthAdjust="spacing" textLength="7" x="465.5" y="397.5654">8</text><text fill="#000000" font-family="sans-serif" font-size="13" lengthAdjust="spacing" textLength="152" x="476.5" y="397.5654">set(cargaMaximaBaterias)</text><polygon fill="#181818" points="915.5,458.7734,925.5,462.7734,915.5,466.7734,919.5,462.7734" style="stroke:#181818;stroke-width:1.0;"/><line style="stroke:#181818;stroke-width:1.0;" x1="458.5" x2="921.5" y1="462.7734" y2="462.7734"/><text fill="#000000" font-family="sans-serif" font-size="13" font-weight="bold" lengthAdjust="spacing" textLength="7" x="465.5" y="457.917">9</text><text fill="#000000" font-family="sans-serif" font-size="13" lengthAdjust="spacing" textLength="86" x="476.5" y="457.917">set(autonomia)</text><polygon fill="#181818" points="626.5,519.125,636.5,523.125,626.5,527.125,630.5,523.125" style="stroke:#181818;stroke-width:1.0;"/><line style="stroke:#181818;stroke-width:1.0;" x1="458.5" x2="632.5" y1="523.125" y2="523.125"/><text fill="#000000" font-family="sans-serif" font-size="13" font-weight="bold" lengthAdjust="spacing" textLength="14" x="465.5" y="518.2686">10</text><text fill="#000000" font-family="sans-serif" font-size="13" lengthAdjust="spacing" textLength="76" x="483.5" y="518.2686">save(camiao)</text><polygon fill="#181818" points="803.5,549.4766,813.5,553.4766,803.5,557.4766,807.5,553.4766" style="stroke:#181818;stroke-width:1.0;"/><line style="stroke:#181818;stroke-width:1.0;" x1="648.5" x2="809.5" y1="553.4766" y2="553.4766"/><text fill="#000000" font-family="sans-serif" font-size="13" font-weight="bold" lengthAdjust="spacing" textLength="14" x="655.5" y="548.6201">11</text><text fill="#000000" font-family="sans-serif" font-size="13" lengthAdjust="spacing" textLength="130" x="673.5" y="548.6201">toPersistence(camiao)</text><polygon fill="#181818" points="659.5,579.8281,649.5,583.8281,659.5,587.8281,655.5,583.8281" style="stroke:#181818;stroke-width:1.0;"/><line style="stroke:#181818;stroke-width:1.0;stroke-dasharray:2.0,2.0;" x1="653.5" x2="819.5" y1="583.8281" y2="583.8281"/><text fill="#000000" font-family="sans-serif" font-size="13" font-weight="bold" lengthAdjust="spacing" textLength="14" x="665.5" y="578.9717">12</text><text fill="#000000" font-family="sans-serif" font-size="13" lengthAdjust="spacing" textLength="42" x="683.5" y="578.9717">camiao</text><polygon fill="#181818" points="469.5,610.1797,459.5,614.1797,469.5,618.1797,465.5,614.1797" style="stroke:#181818;stroke-width:1.0;"/><line style="stroke:#181818;stroke-width:1.0;stroke-dasharray:2.0,2.0;" x1="463.5" x2="642.5" y1="614.1797" y2="614.1797"/><text fill="#000000" font-family="sans-serif" font-size="13" font-weight="bold" lengthAdjust="spacing" textLength="14" x="475.5" y="609.3232">13</text><text fill="#000000" font-family="sans-serif" font-size="13" lengthAdjust="spacing" textLength="42" x="493.5" y="609.3232">camiao</text><polygon fill="#181818" points="803.5,640.5313,813.5,644.5313,803.5,648.5313,807.5,644.5313" style="stroke:#181818;stroke-width:1.0;"/><line style="stroke:#181818;stroke-width:1.0;" x1="458.5" x2="809.5" y1="644.5313" y2="644.5313"/><text fill="#000000" font-family="sans-serif" font-size="13" font-weight="bold" lengthAdjust="spacing" textLength="14" x="465.5" y="639.6748">14</text><text fill="#000000" font-family="sans-serif" font-size="13" lengthAdjust="spacing" textLength="87" x="483.5" y="639.6748">toDTO(camiao)</text><polygon fill="#181818" points="986,670.8828,996,674.8828,986,678.8828,990,674.8828" style="stroke:#181818;stroke-width:1.0;"/><line style="stroke:#181818;stroke-width:1.0;" x1="825.5" x2="992" y1="674.8828" y2="674.8828"/><text fill="#000000" font-family="sans-serif" font-size="13" font-weight="bold" lengthAdjust="spacing" textLength="14" x="832.5" y="670.0264">15</text><text fill="#000000" font-family="sans-serif" font-size="13" lengthAdjust="spacing" textLength="44" x="850.5" y="670.0264">create()</text><rect fill="#E2E2F0" height="31.6094" rx="2.5" ry="2.5" style="stroke:#181818;stroke-width:0.5;" width="171" x="998" y="652.5313"/><text fill="#000000" font-family="sans-serif" font-size="14" lengthAdjust="spacing" textLength="157" x="1005" y="674.0645">camiaoDTO:CamiaoDTO</text><polygon fill="#181818" points="469.5,713.4922,459.5,717.4922,469.5,721.4922,465.5,717.4922" style="stroke:#181818;stroke-width:1.0;"/><line style="stroke:#181818;stroke-width:1.0;stroke-dasharray:2.0,2.0;" x1="463.5" x2="819.5" y1="717.4922" y2="717.4922"/><text fill="#000000" font-family="sans-serif" font-size="13" font-weight="bold" lengthAdjust="spacing" textLength="14" x="475.5" y="712.6357">16</text><text fill="#000000" font-family="sans-serif" font-size="13" lengthAdjust="spacing" textLength="68" x="493.5" y="712.6357">camiaoDTO</text><polygon fill="#181818" points="339,743.8438,329,747.8438,339,751.8438,335,747.8438" style="stroke:#181818;stroke-width:1.0;"/><line style="stroke:#181818;stroke-width:1.0;stroke-dasharray:2.0,2.0;" x1="333" x2="452.5" y1="747.8438" y2="747.8438"/><text fill="#000000" font-family="sans-serif" font-size="13" font-weight="bold" lengthAdjust="spacing" textLength="14" x="345" y="742.9873">17</text><text fill="#000000" font-family="sans-serif" font-size="13" lengthAdjust="spacing" textLength="68" x="363" y="742.9873">camiaoDTO</text><polygon fill="#181818" points="213,774.1953,203,778.1953,213,782.1953,209,778.1953" style="stroke:#181818;stroke-width:1.0;"/><line style="stroke:#181818;stroke-width:1.0;stroke-dasharray:2.0,2.0;" x1="207" x2="322" y1="778.1953" y2="778.1953"/><text fill="#000000" font-family="sans-serif" font-size="13" font-weight="bold" lengthAdjust="spacing" textLength="14" x="219" y="773.3389">18</text><text fill="#000000" font-family="sans-serif" font-size="13" lengthAdjust="spacing" textLength="68" x="237" y="773.3389">camiaoDTO</text><polygon fill="#181818" points="11,804.5469,1,808.5469,11,812.5469,7,808.5469" style="stroke:#181818;stroke-width:1.0;"/><line style="stroke:#181818;stroke-width:1.0;stroke-dasharray:2.0,2.0;" x1="5" x2="196" y1="808.5469" y2="808.5469"/><text fill="#000000" font-family="sans-serif" font-size="13" font-weight="bold" lengthAdjust="spacing" textLength="14" x="17" y="803.6904">19</text><text fill="#000000" font-family="sans-serif" font-size="13" lengthAdjust="spacing" textLength="68" x="35" y="803.6904">camiaoDTO</text><!--MD5=[7cf49aacd321ff74490cec96bcbcdcac]
@startuml

hide footbox
autonumber

participant ":CamiaoRoute" as route
participant ":CamiaoController" as controller
participant ":CamiaoService" as service
participant ":CamiaoRepo" as repo
participant ":CamiaoMap" as map
participant "camiao:Camiao" as camiao
participant "camiaoDTO:CamiaoDTO" as dto

?o-> route : "PUT(.../api/camiao/editar"
activate route
route -> controller : editarCamiao()
activate controller
controller -> service : editarCamiao()
activate service
service -> repo : findByMatricula(matricula)
activate repo
deactivate repo
service -> camiao : set(tara)
activate camiao
deactivate camiao
service -> camiao : set(capacidadeCarga)
activate camiao
deactivate camiao
service -> camiao : set(tempoCarregamentoRapido)
activate camiao
deactivate camiao
service -> camiao : set(cargaMaximaBaterias)
activate camiao
deactivate camiao
service -> camiao : set(autonomia)
activate camiao
deactivate camiao
service -> repo: save(camiao)
activate repo
repo -> map : toPersistence(camiao)
activate map
map - -> repo : camiao
deactivate map
repo - -> service : camiao
deactivate repo 
service -> map: toDTO(camiao)
activate map
map -> dto**: create()
map - -> service : camiaoDTO
deactivate map
service - ->controller :camiaoDTO
deactivate service
controller - -> route: camiaoDTO
deactivate controller
 <- -route : camiaoDTO
 deactivate route



@enduml

PlantUML version 1.2022.7(Mon Aug 22 18:01:30 BST 2022)
(GPL source distribution)
Java Runtime: OpenJDK Runtime Environment
JVM: OpenJDK 64-Bit Server VM
Default Encoding: Cp1252
Language: en
Country: GB
--></g></svg>