<?xml version="1.0" encoding="UTF-8" standalone="no"?><svg xmlns="http://www.w3.org/2000/svg" xmlns:xlink="http://www.w3.org/1999/xlink" contentStyleType="text/css" height="306px" preserveAspectRatio="none" style="width:656px;height:306px;background:#FFFFFF;" version="1.1" viewBox="0 0 656 306" width="656px" zoomAndPan="magnify"><defs/><g><rect fill="#FFFFFF" height="113.4063" style="stroke:#181818;stroke-width:1.0;" width="10" x="53.5" y="92.6094"/><rect fill="#FFFFFF" height="30.3516" style="stroke:#181818;stroke-width:1.0;" width="10" x="583.5" y="114.9609"/><rect fill="#FFFFFF" height="30.3516" style="stroke:#181818;stroke-width:1.0;" width="10" x="583.5" y="175.6641"/><line style="stroke:#181818;stroke-width:0.5;stroke-dasharray:5.0,5.0;" x1="58" x2="58" y1="82.6094" y2="224.0156"/><line style="stroke:#181818;stroke-width:0.5;stroke-dasharray:5.0,5.0;" x1="588.5" x2="588.5" y1="82.6094" y2="224.0156"/><text fill="#000000" font-family="sans-serif" font-size="14" lengthAdjust="spacing" textLength="101" x="5" y="79.5332">Gestor de Frota</text><ellipse cx="58.5" cy="13.5" fill="#E2E2F0" rx="8" ry="8" style="stroke:#181818;stroke-width:0.5;"/><path d="M58.5,21.5 L58.5,48.5 M45.5,29.5 L71.5,29.5 M58.5,48.5 L45.5,63.5 M58.5,48.5 L71.5,63.5 " fill="none" style="stroke:#181818;stroke-width:0.5;"/><text fill="#000000" font-family="sans-serif" font-size="14" lengthAdjust="spacing" textLength="101" x="5" y="237.5488">Gestor de Frota</text><ellipse cx="58.5" cy="249.125" fill="#E2E2F0" rx="8" ry="8" style="stroke:#181818;stroke-width:0.5;"/><path d="M58.5,257.125 L58.5,284.125 M45.5,265.125 L71.5,265.125 M58.5,284.125 L45.5,299.125 M58.5,284.125 L71.5,299.125 " fill="none" style="stroke:#181818;stroke-width:0.5;"/><rect fill="#E2E2F0" height="49.2188" rx="2.5" ry="2.5" style="stroke:#181818;stroke-width:0.5;" width="124" x="526.5" y="32.3906"/><text fill="#000000" font-family="sans-serif" font-size="14" lengthAdjust="spacing" textLength="110" x="533.5" y="53.9238">&lt;&lt;System (C4)&gt;&gt;</text><text fill="#000000" font-family="sans-serif" font-size="14" lengthAdjust="spacing" textLength="58" x="559.5" y="71.5332">EletricGo</text><rect fill="#E2E2F0" height="49.2188" rx="2.5" ry="2.5" style="stroke:#181818;stroke-width:0.5;" width="124" x="526.5" y="223.0156"/><text fill="#000000" font-family="sans-serif" font-size="14" lengthAdjust="spacing" textLength="110" x="533.5" y="244.5488">&lt;&lt;System (C4)&gt;&gt;</text><text fill="#000000" font-family="sans-serif" font-size="14" lengthAdjust="spacing" textLength="58" x="559.5" y="262.1582">EletricGo</text><rect fill="#FFFFFF" height="113.4063" style="stroke:#181818;stroke-width:1.0;" width="10" x="53.5" y="92.6094"/><rect fill="#FFFFFF" height="30.3516" style="stroke:#181818;stroke-width:1.0;" width="10" x="583.5" y="114.9609"/><rect fill="#FFFFFF" height="30.3516" style="stroke:#181818;stroke-width:1.0;" width="10" x="583.5" y="175.6641"/><polygon fill="#181818" points="571.5,110.9609,581.5,114.9609,571.5,118.9609,575.5,114.9609" style="stroke:#181818;stroke-width:1.0;"/><line style="stroke:#181818;stroke-width:1.0;" x1="63.5" x2="577.5" y1="114.9609" y2="114.9609"/><text fill="#000000" font-family="sans-serif" font-size="13" lengthAdjust="spacing" textLength="201" x="70.5" y="110.1045">Inicia o processo de listar camiões</text><polygon fill="#181818" points="74.5,141.3125,64.5,145.3125,74.5,149.3125,70.5,145.3125" style="stroke:#181818;stroke-width:1.0;"/><line style="stroke:#181818;stroke-width:1.0;stroke-dasharray:2.0,2.0;" x1="68.5" x2="587.5" y1="145.3125" y2="145.3125"/><text fill="#000000" font-family="sans-serif" font-size="13" lengthAdjust="spacing" textLength="496" x="80.5" y="140.4561">Apresenta a lista de camiões existentes no sistema com os dados e respetivo estado</text><polygon fill="#181818" points="571.5,171.6641,581.5,175.6641,571.5,179.6641,575.5,175.6641" style="stroke:#181818;stroke-width:1.0;"/><line style="stroke:#181818;stroke-width:1.0;" x1="63.5" x2="577.5" y1="175.6641" y2="175.6641"/><text fill="#000000" font-family="sans-serif" font-size="13" lengthAdjust="spacing" textLength="369" x="70.5" y="170.8076">Seleciona um camião que quer inibir (clicando no botão disable)</text><polygon fill="#181818" points="69.5,202.0156,59.5,206.0156,69.5,210.0156,65.5,206.0156" style="stroke:#181818;stroke-width:1.0;"/><line style="stroke:#181818;stroke-width:1.0;stroke-dasharray:2.0,2.0;" x1="63.5" x2="587.5" y1="206.0156" y2="206.0156"/><text fill="#000000" font-family="sans-serif" font-size="13" lengthAdjust="spacing" textLength="266" x="75.5" y="201.1592">O camião selecionado aparece como desativo</text><!--MD5=[c3ef8753184e1fff83c598f90baefde3]
@startuml

actor "Gestor de Frota" as ga

participant "<<System (C4)>>\nEletricGo" as c4

activate ga
ga -> c4: Inicia o processo de listar camiões
activate c4
c4 - -> ga: Apresenta a lista de camiões existentes no sistema com os dados e respetivo estado
deactivate c4
ga -> c4 : Seleciona um camião que quer inibir (clicando no botão disable)
activate c4
c4 - -> ga : O camião selecionado aparece como desativo
deactivate c4
deactivate ga

@enduml

PlantUML version 1.2022.7(Mon Aug 22 18:01:30 BST 2022)
(GPL source distribution)
Java Runtime: OpenJDK Runtime Environment
JVM: OpenJDK 64-Bit Server VM
Default Encoding: Cp1252
Language: en
Country: GB
--></g></svg>