<?xml version="1.0" encoding="UTF-8" standalone="no"?><svg xmlns="http://www.w3.org/2000/svg" xmlns:xlink="http://www.w3.org/1999/xlink" contentStyleType="text/css" height="352px" preserveAspectRatio="none" style="width:408px;height:352px;background:#FFFFFF;" version="1.1" viewBox="0 0 408 352" width="408px" zoomAndPan="magnify"><defs/><g><rect fill="#FFFFFF" height="234.8125" style="stroke:#181818;stroke-width:1.0;" width="10" x="53.5" y="92.6094"/><rect fill="#FFFFFF" height="30.3516" style="stroke:#181818;stroke-width:1.0;" width="10" x="335.5" y="114.9609"/><rect fill="#FFFFFF" height="30.3516" style="stroke:#181818;stroke-width:1.0;" width="10" x="335.5" y="175.6641"/><rect fill="#FFFFFF" height="30.3516" style="stroke:#181818;stroke-width:1.0;" width="10" x="335.5" y="236.3672"/><rect fill="#FFFFFF" height="30.3516" style="stroke:#181818;stroke-width:1.0;" width="10" x="335.5" y="297.0703"/><line style="stroke:#181818;stroke-width:0.5;stroke-dasharray:5.0,5.0;" x1="58" x2="58" y1="82.6094" y2="345.4219"/><line style="stroke:#181818;stroke-width:0.5;stroke-dasharray:5.0,5.0;" x1="340.5" x2="340.5" y1="82.6094" y2="345.4219"/><text fill="#000000" font-family="sans-serif" font-size="14" lengthAdjust="spacing" textLength="101" x="5" y="79.5332">Gestor de Frota</text><ellipse cx="58.5" cy="13.5" fill="#E2E2F0" rx="8" ry="8" style="stroke:#181818;stroke-width:0.5;"/><path d="M58.5,21.5 L58.5,48.5 M45.5,29.5 L71.5,29.5 M58.5,48.5 L45.5,63.5 M58.5,48.5 L71.5,63.5 " fill="none" style="stroke:#181818;stroke-width:0.5;"/><rect fill="#E2E2F0" height="49.2188" rx="2.5" ry="2.5" style="stroke:#181818;stroke-width:0.5;" width="124" x="278.5" y="32.3906"/><text fill="#000000" font-family="sans-serif" font-size="14" lengthAdjust="spacing" textLength="110" x="285.5" y="53.9238">&lt;&lt;System (C4)&gt;&gt;</text><text fill="#000000" font-family="sans-serif" font-size="14" lengthAdjust="spacing" textLength="58" x="311.5" y="71.5332">EletricGo</text><rect fill="#FFFFFF" height="234.8125" style="stroke:#181818;stroke-width:1.0;" width="10" x="53.5" y="92.6094"/><rect fill="#FFFFFF" height="30.3516" style="stroke:#181818;stroke-width:1.0;" width="10" x="335.5" y="114.9609"/><rect fill="#FFFFFF" height="30.3516" style="stroke:#181818;stroke-width:1.0;" width="10" x="335.5" y="175.6641"/><rect fill="#FFFFFF" height="30.3516" style="stroke:#181818;stroke-width:1.0;" width="10" x="335.5" y="236.3672"/><rect fill="#FFFFFF" height="30.3516" style="stroke:#181818;stroke-width:1.0;" width="10" x="335.5" y="297.0703"/><polygon fill="#181818" points="323.5,110.9609,333.5,114.9609,323.5,118.9609,327.5,114.9609" style="stroke:#181818;stroke-width:1.0;"/><line style="stroke:#181818;stroke-width:1.0;" x1="63.5" x2="329.5" y1="114.9609" y2="114.9609"/><text fill="#000000" font-family="sans-serif" font-size="13" lengthAdjust="spacing" textLength="110" x="70.5" y="110.1045">Editar uma entrega</text><polygon fill="#181818" points="74.5,141.3125,64.5,145.3125,74.5,149.3125,70.5,145.3125" style="stroke:#181818;stroke-width:1.0;"/><line style="stroke:#181818;stroke-width:1.0;stroke-dasharray:2.0,2.0;" x1="68.5" x2="339.5" y1="145.3125" y2="145.3125"/><text fill="#000000" font-family="sans-serif" font-size="13" lengthAdjust="spacing" textLength="204" x="80.5" y="140.4561">Solicita a entrega que deseja editar</text><polygon fill="#181818" points="323.5,171.6641,333.5,175.6641,323.5,179.6641,327.5,175.6641" style="stroke:#181818;stroke-width:1.0;"/><line style="stroke:#181818;stroke-width:1.0;" x1="63.5" x2="329.5" y1="175.6641" y2="175.6641"/><text fill="#000000" font-family="sans-serif" font-size="13" lengthAdjust="spacing" textLength="169" x="70.5" y="170.8076">Introduz os dados solicitados</text><polygon fill="#181818" points="74.5,202.0156,64.5,206.0156,74.5,210.0156,70.5,206.0156" style="stroke:#181818;stroke-width:1.0;"/><line style="stroke:#181818;stroke-width:1.0;stroke-dasharray:2.0,2.0;" x1="68.5" x2="339.5" y1="206.0156" y2="206.0156"/><text fill="#000000" font-family="sans-serif" font-size="13" lengthAdjust="spacing" textLength="183" x="80.5" y="201.1592">Mostra a informação da entrega</text><polygon fill="#181818" points="323.5,232.3672,333.5,236.3672,323.5,240.3672,327.5,236.3672" style="stroke:#181818;stroke-width:1.0;"/><line style="stroke:#181818;stroke-width:1.0;" x1="63.5" x2="329.5" y1="236.3672" y2="236.3672"/><text fill="#000000" font-family="sans-serif" font-size="13" lengthAdjust="spacing" textLength="173" x="70.5" y="231.5107">Altera informações da entrega</text><polygon fill="#181818" points="74.5,262.7188,64.5,266.7188,74.5,270.7188,70.5,266.7188" style="stroke:#181818;stroke-width:1.0;"/><line style="stroke:#181818;stroke-width:1.0;stroke-dasharray:2.0,2.0;" x1="68.5" x2="339.5" y1="266.7188" y2="266.7188"/><text fill="#000000" font-family="sans-serif" font-size="13" lengthAdjust="spacing" textLength="248" x="80.5" y="261.8623">Solicita a confirmação dos dados inseridos</text><polygon fill="#181818" points="323.5,293.0703,333.5,297.0703,323.5,301.0703,327.5,297.0703" style="stroke:#181818;stroke-width:1.0;"/><line style="stroke:#181818;stroke-width:1.0;" x1="63.5" x2="329.5" y1="297.0703" y2="297.0703"/><text fill="#000000" font-family="sans-serif" font-size="13" lengthAdjust="spacing" textLength="108" x="70.5" y="292.2139">Confirma os dados</text><polygon fill="#181818" points="69.5,323.4219,59.5,327.4219,69.5,331.4219,65.5,327.4219" style="stroke:#181818;stroke-width:1.0;"/><line style="stroke:#181818;stroke-width:1.0;stroke-dasharray:2.0,2.0;" x1="63.5" x2="339.5" y1="327.4219" y2="327.4219"/><text fill="#000000" font-family="sans-serif" font-size="13" lengthAdjust="spacing" textLength="181" x="75.5" y="322.5654">Informa o sucesso da operação</text><!--MD5=[eea1cfe306f6b0596f6374ad83160ca6]
@startuml

hide footbox

actor "Gestor de Frota" as gf
participant "<<System (C4)>>\nEletricGo" as c4

activate gf
gf -> c4: Editar uma entrega
activate c4
c4 - -> gf: Solicita a entrega que deseja editar
deactivate c4
gf -> c4: Introduz os dados solicitados
activate c4
c4 - -> gf : Mostra a informação da entrega 
deactivate c4
gf -> c4 : Altera informações da entrega
activate c4
c4 - -> gf : Solicita a confirmação dos dados inseridos
deactivate c4
gf -> c4 : Confirma os dados
activate c4
c4 - -> gf : Informa o sucesso da operação
deactivate c4
deactivate gf


@enduml

PlantUML version 1.2022.7(Mon Aug 22 18:01:30 BST 2022)
(GPL source distribution)
Java Runtime: OpenJDK Runtime Environment
JVM: OpenJDK 64-Bit Server VM
Default Encoding: Cp1252
Language: pt
Country: PT
--></g></svg>