<?xml version="1.0" encoding="UTF-8" standalone="no"?><svg xmlns="http://www.w3.org/2000/svg" xmlns:xlink="http://www.w3.org/1999/xlink" contentStyleType="text/css" height="458px" preserveAspectRatio="none" style="width:1010px;height:458px;background:#FFFFFF;" version="1.1" viewBox="0 0 1010 458" width="1010px" zoomAndPan="magnify"><defs/><g><rect fill="#FFFFFF" height="356.2188" style="stroke:#181818;stroke-width:1.0;" width="10" x="36" y="47.6094"/><rect fill="#FFFFFF" height="52.7031" style="stroke:#181818;stroke-width:1.0;" width="10" x="137" y="47.6094"/><rect fill="#FFFFFF" height="60.7031" style="stroke:#181818;stroke-width:1.0;" width="10" x="137" y="343.125"/><rect fill="#FFFFFF" height="60.7031" style="stroke:#181818;stroke-width:1.0;" width="10" x="315" y="69.9609"/><rect fill="#FFFFFF" height="60.7031" style="stroke:#181818;stroke-width:1.0;" width="10" x="315" y="312.7734"/><rect fill="#FFFFFF" height="242.8125" style="stroke:#181818;stroke-width:1.0;" width="10" x="451.5" y="100.3125"/><rect fill="#FFFFFF" height="60.7031" style="stroke:#181818;stroke-width:1.0;" width="10" x="581.5" y="130.6641"/><rect fill="#FFFFFF" height="30.3516" style="stroke:#181818;stroke-width:1.0;" width="10" x="722" y="191.3672"/><rect fill="#FFFFFF" height="30.3516" style="stroke:#181818;stroke-width:1.0;" width="10" x="850.5" y="221.7188"/><rect fill="#FFFFFF" height="60.7031" style="stroke:#181818;stroke-width:1.0;" width="10" x="954" y="252.0703"/><line style="stroke:#181818;stroke-width:0.5;stroke-dasharray:5.0,5.0;" x1="41" x2="41" y1="37.6094" y2="421.8281"/><line style="stroke:#181818;stroke-width:0.5;stroke-dasharray:5.0,5.0;" x1="142" x2="142" y1="37.6094" y2="421.8281"/><line style="stroke:#181818;stroke-width:0.5;stroke-dasharray:5.0,5.0;" x1="320" x2="320" y1="37.6094" y2="421.8281"/><line style="stroke:#181818;stroke-width:0.5;stroke-dasharray:5.0,5.0;" x1="456" x2="456" y1="37.6094" y2="421.8281"/><line style="stroke:#181818;stroke-width:0.5;stroke-dasharray:5.0,5.0;" x1="586" x2="586" y1="37.6094" y2="421.8281"/><line style="stroke:#181818;stroke-width:0.5;stroke-dasharray:5.0,5.0;" x1="727" x2="727" y1="37.6094" y2="421.8281"/><line style="stroke:#181818;stroke-width:0.5;stroke-dasharray:5.0,5.0;" x1="855" x2="855" y1="37.6094" y2="421.8281"/><line style="stroke:#181818;stroke-width:0.5;stroke-dasharray:5.0,5.0;" x1="959" x2="959" y1="37.6094" y2="421.8281"/><rect fill="#E2E2F0" height="31.6094" rx="2.5" ry="2.5" style="stroke:#181818;stroke-width:0.5;" width="72" x="5" y="5"/><text fill="#000000" font-family="sans-serif" font-size="14" lengthAdjust="spacing" textLength="58" x="12" y="26.5332">: Sistema</text><rect fill="#E2E2F0" height="31.6094" rx="2.5" ry="2.5" style="stroke:#181818;stroke-width:0.5;" width="72" x="5" y="420.8281"/><text fill="#000000" font-family="sans-serif" font-size="14" lengthAdjust="spacing" textLength="58" x="12" y="442.3613">: Sistema</text><rect fill="#E2E2F0" height="31.6094" rx="2.5" ry="2.5" style="stroke:#181818;stroke-width:0.5;" width="72" x="106" y="5"/><text fill="#000000" font-family="sans-serif" font-size="14" lengthAdjust="spacing" textLength="58" x="113" y="26.5332">: Entrega</text><rect fill="#E2E2F0" height="31.6094" rx="2.5" ry="2.5" style="stroke:#181818;stroke-width:0.5;" width="72" x="106" y="420.8281"/><text fill="#000000" font-family="sans-serif" font-size="14" lengthAdjust="spacing" textLength="58" x="113" y="442.3613">: Entrega</text><rect fill="#E2E2F0" height="31.6094" rx="2.5" ry="2.5" style="stroke:#181818;stroke-width:0.5;" width="134" x="253" y="5"/><text fill="#000000" font-family="sans-serif" font-size="14" lengthAdjust="spacing" textLength="120" x="260" y="26.5332">: EntregaController</text><rect fill="#E2E2F0" height="31.6094" rx="2.5" ry="2.5" style="stroke:#181818;stroke-width:0.5;" width="134" x="253" y="420.8281"/><text fill="#000000" font-family="sans-serif" font-size="14" lengthAdjust="spacing" textLength="120" x="260" y="442.3613">: EntregaController</text><rect fill="#E2E2F0" height="31.6094" rx="2.5" ry="2.5" style="stroke:#181818;stroke-width:0.5;" width="119" x="397" y="5"/><text fill="#000000" font-family="sans-serif" font-size="14" lengthAdjust="spacing" textLength="105" x="404" y="26.5332">: EntregaService</text><rect fill="#E2E2F0" height="31.6094" rx="2.5" ry="2.5" style="stroke:#181818;stroke-width:0.5;" width="119" x="397" y="420.8281"/><text fill="#000000" font-family="sans-serif" font-size="14" lengthAdjust="spacing" textLength="105" x="404" y="442.3613">: EntregaService</text><rect fill="#E2E2F0" height="31.6094" rx="2.5" ry="2.5" style="stroke:#181818;stroke-width:0.5;" width="121" x="526" y="5"/><text fill="#000000" font-family="sans-serif" font-size="14" lengthAdjust="spacing" textLength="107" x="533" y="26.5332">entrega: Entrega</text><rect fill="#E2E2F0" height="31.6094" rx="2.5" ry="2.5" style="stroke:#181818;stroke-width:0.5;" width="121" x="526" y="420.8281"/><text fill="#000000" font-family="sans-serif" font-size="14" lengthAdjust="spacing" textLength="107" x="533" y="442.3613">entrega: Entrega</text><rect fill="#E2E2F0" height="31.6094" rx="2.5" ry="2.5" style="stroke:#181818;stroke-width:0.5;" width="140" x="657" y="5"/><text fill="#000000" font-family="sans-serif" font-size="14" lengthAdjust="spacing" textLength="126" x="664" y="26.5332">: EntregaRepository</text><rect fill="#E2E2F0" height="31.6094" rx="2.5" ry="2.5" style="stroke:#181818;stroke-width:0.5;" width="140" x="657" y="420.8281"/><text fill="#000000" font-family="sans-serif" font-size="14" lengthAdjust="spacing" textLength="126" x="664" y="442.3613">: EntregaRepository</text><rect fill="#E2E2F0" height="31.6094" rx="2.5" ry="2.5" style="stroke:#181818;stroke-width:0.5;" width="97" x="807" y="5"/><text fill="#000000" font-family="sans-serif" font-size="14" lengthAdjust="spacing" textLength="83" x="814" y="26.5332">: IUnitOfWork</text><rect fill="#E2E2F0" height="31.6094" rx="2.5" ry="2.5" style="stroke:#181818;stroke-width:0.5;" width="97" x="807" y="420.8281"/><text fill="#000000" font-family="sans-serif" font-size="14" lengthAdjust="spacing" textLength="83" x="814" y="442.3613">: IUnitOfWork</text><rect fill="#E2E2F0" height="31.6094" rx="2.5" ry="2.5" style="stroke:#181818;stroke-width:0.5;" width="90" x="914" y="5"/><text fill="#000000" font-family="sans-serif" font-size="14" lengthAdjust="spacing" textLength="76" x="921" y="26.5332">:EntregaDto</text><rect fill="#E2E2F0" height="31.6094" rx="2.5" ry="2.5" style="stroke:#181818;stroke-width:0.5;" width="90" x="914" y="420.8281"/><text fill="#000000" font-family="sans-serif" font-size="14" lengthAdjust="spacing" textLength="76" x="921" y="442.3613">:EntregaDto</text><rect fill="#FFFFFF" height="356.2188" style="stroke:#181818;stroke-width:1.0;" width="10" x="36" y="47.6094"/><rect fill="#FFFFFF" height="52.7031" style="stroke:#181818;stroke-width:1.0;" width="10" x="137" y="47.6094"/><rect fill="#FFFFFF" height="60.7031" style="stroke:#181818;stroke-width:1.0;" width="10" x="137" y="343.125"/><rect fill="#FFFFFF" height="60.7031" style="stroke:#181818;stroke-width:1.0;" width="10" x="315" y="69.9609"/><rect fill="#FFFFFF" height="60.7031" style="stroke:#181818;stroke-width:1.0;" width="10" x="315" y="312.7734"/><rect fill="#FFFFFF" height="242.8125" style="stroke:#181818;stroke-width:1.0;" width="10" x="451.5" y="100.3125"/><rect fill="#FFFFFF" height="60.7031" style="stroke:#181818;stroke-width:1.0;" width="10" x="581.5" y="130.6641"/><rect fill="#FFFFFF" height="30.3516" style="stroke:#181818;stroke-width:1.0;" width="10" x="722" y="191.3672"/><rect fill="#FFFFFF" height="30.3516" style="stroke:#181818;stroke-width:1.0;" width="10" x="850.5" y="221.7188"/><rect fill="#FFFFFF" height="60.7031" style="stroke:#181818;stroke-width:1.0;" width="10" x="954" y="252.0703"/><polygon fill="#181818" points="125,65.9609,135,69.9609,125,73.9609,129,69.9609" style="stroke:#181818;stroke-width:1.0;"/><line style="stroke:#181818;stroke-width:1.0;" x1="46" x2="131" y1="69.9609" y2="69.9609"/><text fill="#000000" font-family="sans-serif" font-size="13" font-weight="bold" lengthAdjust="spacing" textLength="7" x="53" y="65.1045">1</text><text fill="#000000" font-family="sans-serif" font-size="13" lengthAdjust="spacing" textLength="35" x="64" y="65.1045">POST</text><polygon fill="#181818" points="303,96.3125,313,100.3125,303,104.3125,307,100.3125" style="stroke:#181818;stroke-width:1.0;"/><line style="stroke:#181818;stroke-width:1.0;" x1="142" x2="309" y1="100.3125" y2="100.3125"/><text fill="#000000" font-family="sans-serif" font-size="13" font-weight="bold" lengthAdjust="spacing" textLength="7" x="149" y="95.4561">2</text><text fill="#000000" font-family="sans-serif" font-size="13" lengthAdjust="spacing" textLength="133" x="160" y="95.4561">Create(EntregaDto dto)</text><polygon fill="#181818" points="439.5,126.6641,449.5,130.6641,439.5,134.6641,443.5,130.6641" style="stroke:#181818;stroke-width:1.0;"/><line style="stroke:#181818;stroke-width:1.0;" x1="320" x2="445.5" y1="130.6641" y2="130.6641"/><text fill="#000000" font-family="sans-serif" font-size="13" font-weight="bold" lengthAdjust="spacing" textLength="7" x="327" y="125.8076">3</text><text fill="#000000" font-family="sans-serif" font-size="13" lengthAdjust="spacing" textLength="86" x="338" y="125.8076">AddAsync(dto)</text><polygon fill="#181818" points="569.5,157.0156,579.5,161.0156,569.5,165.0156,573.5,161.0156" style="stroke:#181818;stroke-width:1.0;"/><line style="stroke:#181818;stroke-width:1.0;stroke-dasharray:2.0,2.0;" x1="461.5" x2="575.5" y1="161.0156" y2="161.0156"/><text fill="#000000" font-family="sans-serif" font-size="13" font-weight="bold" lengthAdjust="spacing" textLength="7" x="468.5" y="156.1592">4</text><text fill="#000000" font-family="sans-serif" font-size="13" lengthAdjust="spacing" textLength="44" x="479.5" y="156.1592">create()</text><polygon fill="#181818" points="472.5,187.3672,462.5,191.3672,472.5,195.3672,468.5,191.3672" style="stroke:#181818;stroke-width:1.0;"/><line style="stroke:#181818;stroke-width:1.0;stroke-dasharray:2.0,2.0;" x1="466.5" x2="585.5" y1="191.3672" y2="191.3672"/><text fill="#000000" font-family="sans-serif" font-size="13" font-weight="bold" lengthAdjust="spacing" textLength="7" x="478.5" y="186.5107">5</text><text fill="#000000" font-family="sans-serif" font-size="13" lengthAdjust="spacing" textLength="43" x="489.5" y="186.5107">entrega</text><polygon fill="#181818" points="715,217.7188,725,221.7188,715,225.7188,719,221.7188" style="stroke:#181818;stroke-width:1.0;"/><line style="stroke:#181818;stroke-width:1.0;" x1="461.5" x2="721" y1="221.7188" y2="221.7188"/><text fill="#000000" font-family="sans-serif" font-size="13" font-weight="bold" lengthAdjust="spacing" textLength="7" x="468.5" y="216.8623">6</text><text fill="#000000" font-family="sans-serif" font-size="13" lengthAdjust="spacing" textLength="111" x="479.5" y="216.8623">AddAsync(entrega)</text><polygon fill="#181818" points="843.5,248.0703,853.5,252.0703,843.5,256.0703,847.5,252.0703" style="stroke:#181818;stroke-width:1.0;"/><line style="stroke:#181818;stroke-width:1.0;" x1="461.5" x2="849.5" y1="252.0703" y2="252.0703"/><text fill="#000000" font-family="sans-serif" font-size="13" font-weight="bold" lengthAdjust="spacing" textLength="7" x="468.5" y="247.2139">7</text><text fill="#000000" font-family="sans-serif" font-size="13" lengthAdjust="spacing" textLength="90" x="479.5" y="247.2139">CommitAsync()</text><polygon fill="#181818" points="942,278.4219,952,282.4219,942,286.4219,946,282.4219" style="stroke:#181818;stroke-width:1.0;"/><line style="stroke:#181818;stroke-width:1.0;stroke-dasharray:2.0,2.0;" x1="461.5" x2="948" y1="282.4219" y2="282.4219"/><text fill="#000000" font-family="sans-serif" font-size="13" font-weight="bold" lengthAdjust="spacing" textLength="7" x="468.5" y="277.5654">8</text><text fill="#000000" font-family="sans-serif" font-size="13" lengthAdjust="spacing" textLength="44" x="479.5" y="277.5654">create()</text><polygon fill="#181818" points="472.5,308.7734,462.5,312.7734,472.5,316.7734,468.5,312.7734" style="stroke:#181818;stroke-width:1.0;"/><line style="stroke:#181818;stroke-width:1.0;stroke-dasharray:2.0,2.0;" x1="466.5" x2="958" y1="312.7734" y2="312.7734"/><text fill="#000000" font-family="sans-serif" font-size="13" font-weight="bold" lengthAdjust="spacing" textLength="7" x="478.5" y="307.917">9</text><text fill="#000000" font-family="sans-serif" font-size="13" lengthAdjust="spacing" textLength="18" x="489.5" y="307.917">dto</text><polygon fill="#181818" points="336,339.125,326,343.125,336,347.125,332,343.125" style="stroke:#181818;stroke-width:1.0;"/><line style="stroke:#181818;stroke-width:1.0;stroke-dasharray:2.0,2.0;" x1="330" x2="455.5" y1="343.125" y2="343.125"/><text fill="#000000" font-family="sans-serif" font-size="13" font-weight="bold" lengthAdjust="spacing" textLength="14" x="342" y="338.2686">10</text><text fill="#000000" font-family="sans-serif" font-size="13" lengthAdjust="spacing" textLength="4" x="360" y="338.2686"> </text><polygon fill="#181818" points="158,369.4766,148,373.4766,158,377.4766,154,373.4766" style="stroke:#181818;stroke-width:1.0;"/><line style="stroke:#181818;stroke-width:1.0;" x1="152" x2="319" y1="373.4766" y2="373.4766"/><text fill="#000000" font-family="sans-serif" font-size="13" font-weight="bold" lengthAdjust="spacing" textLength="14" x="164" y="368.6201">11</text><text fill="#000000" font-family="sans-serif" font-size="13" lengthAdjust="spacing" textLength="4" x="182" y="368.6201"> </text><polygon fill="#181818" points="52,399.8281,42,403.8281,52,407.8281,48,403.8281" style="stroke:#181818;stroke-width:1.0;"/><line style="stroke:#181818;stroke-width:1.0;" x1="46" x2="141" y1="403.8281" y2="403.8281"/><text fill="#000000" font-family="sans-serif" font-size="13" font-weight="bold" lengthAdjust="spacing" textLength="14" x="58" y="398.9717">12</text><text fill="#000000" font-family="sans-serif" font-size="13" lengthAdjust="spacing" textLength="49" x="76" y="398.9717">success</text><!--MD5=[67d8a3a9c8efae86b5e82c5b14588ddf]
@startuml
autonumber

participant ": Sistema" as SYSTEM
participant ": Entrega" as ENTREGA
participant ": EntregaController" as CTRL
participant ": EntregaService" as SERVICE
participant "entrega: Entrega" as E
participant ": EntregaRepository" as REPO 
participant ": IUnitOfWork" as IU
participant ":EntregaDto" as DTO

activate SYSTEM
activate ENTREGA
SYSTEM -> ENTREGA: POST
activate CTRL
ENTREGA -> CTRL: Create(EntregaDto dto)
deactivate ENTREGA
activate SERVICE
CTRL -> SERVICE: AddAsync(dto)
deactivate CTRL
activate E
SERVICE - -> E: create()
E - -> SERVICE: entrega
deactivate E
activate REPO
SERVICE -> REPO: AddAsync(entrega)
deactivate REPO
activate IU
SERVICE -> IU: CommitAsync()
deactivate IU
activate DTO
SERVICE - -> DTO: create()
DTO - -> SERVICE: dto
deactivate DTO 
activate CTRL
SERVICE - -> CTRL:
deactivate SERVICE
activate ENTREGA
CTRL -> ENTREGA:
deactivate CTRL
ENTREGA -> SYSTEM: success
deactivate ENTREGA
deactivate SYSTEM




@enduml

PlantUML version 1.2022.7(Mon Aug 22 18:01:30 BST 2022)
(GPL source distribution)
Java Runtime: OpenJDK Runtime Environment
JVM: OpenJDK 64-Bit Server VM
Default Encoding: Cp1252
Language: pt
Country: PT
--></g></svg>