<?xml version="1.0" encoding="UTF-8" standalone="no"?><svg xmlns="http://www.w3.org/2000/svg" xmlns:xlink="http://www.w3.org/1999/xlink" contentStyleType="text/css" height="531px" preserveAspectRatio="none" style="width:834px;height:531px;background:#FFFFFF;" version="1.1" viewBox="0 0 834 531" width="834px" zoomAndPan="magnify"><defs/><g><rect fill="#FFFFFF" height="338.8672" style="stroke:#181818;stroke-width:1.0;" width="10" x="64.5" y="92.6094"/><rect fill="#FFFFFF" height="30.3516" style="stroke:#181818;stroke-width:1.0;" width="10" x="366.5" y="114.9609"/><rect fill="#FFFFFF" height="30.3516" style="stroke:#181818;stroke-width:1.0;" width="10" x="366.5" y="175.6641"/><rect fill="#FFFFFF" height="195.1094" style="stroke:#181818;stroke-width:1.0;" width="10" x="366.5" y="236.3672"/><rect fill="#FFFFFF" height="30.3516" style="stroke:#181818;stroke-width:1.0;" width="10" x="530.5" y="266.7188"/><rect fill="#FFFFFF" height="73.7031" style="stroke:#181818;stroke-width:1.0;" width="10" x="664.5" y="327.4219"/><line style="stroke:#181818;stroke-width:0.5;stroke-dasharray:5.0,5.0;" x1="69" x2="69" y1="82.6094" y2="449.4766"/><line style="stroke:#181818;stroke-width:0.5;stroke-dasharray:5.0,5.0;" x1="371.5" x2="371.5" y1="82.6094" y2="449.4766"/><line style="stroke:#181818;stroke-width:0.5;stroke-dasharray:5.0,5.0;" x1="535.5" x2="535.5" y1="82.6094" y2="449.4766"/><line style="stroke:#181818;stroke-width:0.5;stroke-dasharray:5.0,5.0;" x1="669.5" x2="669.5" y1="82.6094" y2="449.4766"/><text fill="#000000" font-family="sans-serif" font-size="14" lengthAdjust="spacing" textLength="123" x="5" y="79.5332">Gestor de Logística</text><ellipse cx="69.5" cy="13.5" fill="#E2E2F0" rx="8" ry="8" style="stroke:#181818;stroke-width:0.5;"/><path d="M69.5,21.5 L69.5,48.5 M56.5,29.5 L82.5,29.5 M69.5,48.5 L56.5,63.5 M69.5,48.5 L82.5,63.5 " fill="none" style="stroke:#181818;stroke-width:0.5;"/><text fill="#000000" font-family="sans-serif" font-size="14" lengthAdjust="spacing" textLength="123" x="5" y="463.0098">Gestor de Logística</text><ellipse cx="69.5" cy="474.5859" fill="#E2E2F0" rx="8" ry="8" style="stroke:#181818;stroke-width:0.5;"/><path d="M69.5,482.5859 L69.5,509.5859 M56.5,490.5859 L82.5,490.5859 M69.5,509.5859 L56.5,524.5859 M69.5,509.5859 L82.5,524.5859 " fill="none" style="stroke:#181818;stroke-width:0.5;"/><rect fill="#E2E2F0" height="49.2188" rx="2.5" ry="2.5" style="stroke:#181818;stroke-width:0.5;" width="124" x="309.5" y="32.3906"/><text fill="#000000" font-family="sans-serif" font-size="14" lengthAdjust="spacing" textLength="110" x="316.5" y="53.9238">&lt;&lt;System (C4)&gt;&gt;</text><text fill="#000000" font-family="sans-serif" font-size="14" lengthAdjust="spacing" textLength="78" x="332.5" y="71.5332">Visualização</text><rect fill="#E2E2F0" height="49.2188" rx="2.5" ry="2.5" style="stroke:#181818;stroke-width:0.5;" width="124" x="309.5" y="448.4766"/><text fill="#000000" font-family="sans-serif" font-size="14" lengthAdjust="spacing" textLength="110" x="316.5" y="470.0098">&lt;&lt;System (C4)&gt;&gt;</text><text fill="#000000" font-family="sans-serif" font-size="14" lengthAdjust="spacing" textLength="78" x="332.5" y="487.6191">Visualização</text><rect fill="#E2E2F0" height="49.2188" rx="2.5" ry="2.5" style="stroke:#181818;stroke-width:0.5;" width="124" x="473.5" y="32.3906"/><text fill="#000000" font-family="sans-serif" font-size="14" lengthAdjust="spacing" textLength="110" x="480.5" y="53.9238">&lt;&lt;System (C4)&gt;&gt;</text><text fill="#000000" font-family="sans-serif" font-size="14" lengthAdjust="spacing" textLength="30" x="520.5" y="71.5332">MDA</text><rect fill="#E2E2F0" height="49.2188" rx="2.5" ry="2.5" style="stroke:#181818;stroke-width:0.5;" width="124" x="473.5" y="448.4766"/><text fill="#000000" font-family="sans-serif" font-size="14" lengthAdjust="spacing" textLength="110" x="480.5" y="470.0098">&lt;&lt;System (C4)&gt;&gt;</text><text fill="#000000" font-family="sans-serif" font-size="14" lengthAdjust="spacing" textLength="30" x="520.5" y="487.6191">MDA</text><rect fill="#E2E2F0" height="49.2188" rx="2.5" ry="2.5" style="stroke:#181818;stroke-width:0.5;" width="124" x="607.5" y="32.3906"/><text fill="#000000" font-family="sans-serif" font-size="14" lengthAdjust="spacing" textLength="110" x="614.5" y="53.9238">&lt;&lt;System (C4)&gt;&gt;</text><text fill="#000000" font-family="sans-serif" font-size="14" lengthAdjust="spacing" textLength="29" x="655" y="71.5332">MDL</text><rect fill="#E2E2F0" height="49.2188" rx="2.5" ry="2.5" style="stroke:#181818;stroke-width:0.5;" width="124" x="607.5" y="448.4766"/><text fill="#000000" font-family="sans-serif" font-size="14" lengthAdjust="spacing" textLength="110" x="614.5" y="470.0098">&lt;&lt;System (C4)&gt;&gt;</text><text fill="#000000" font-family="sans-serif" font-size="14" lengthAdjust="spacing" textLength="29" x="655" y="487.6191">MDL</text><rect fill="#FFFFFF" height="338.8672" style="stroke:#181818;stroke-width:1.0;" width="10" x="64.5" y="92.6094"/><rect fill="#FFFFFF" height="30.3516" style="stroke:#181818;stroke-width:1.0;" width="10" x="366.5" y="114.9609"/><rect fill="#FFFFFF" height="30.3516" style="stroke:#181818;stroke-width:1.0;" width="10" x="366.5" y="175.6641"/><rect fill="#FFFFFF" height="195.1094" style="stroke:#181818;stroke-width:1.0;" width="10" x="366.5" y="236.3672"/><rect fill="#FFFFFF" height="30.3516" style="stroke:#181818;stroke-width:1.0;" width="10" x="530.5" y="266.7188"/><rect fill="#FFFFFF" height="73.7031" style="stroke:#181818;stroke-width:1.0;" width="10" x="664.5" y="327.4219"/><polygon fill="#181818" points="354.5,110.9609,364.5,114.9609,354.5,118.9609,358.5,114.9609" style="stroke:#181818;stroke-width:1.0;"/><line style="stroke:#181818;stroke-width:1.0;" x1="74.5" x2="360.5" y1="114.9609" y2="114.9609"/><text fill="#000000" font-family="sans-serif" font-size="13" font-weight="bold" lengthAdjust="spacing" textLength="7" x="81.5" y="110.1045">1</text><text fill="#000000" font-family="sans-serif" font-size="13" lengthAdjust="spacing" textLength="253" x="92.5" y="110.1045">Inicia o processo de registo de um percurso</text><polygon fill="#181818" points="85.5,141.3125,75.5,145.3125,85.5,149.3125,81.5,145.3125" style="stroke:#181818;stroke-width:1.0;"/><line style="stroke:#181818;stroke-width:1.0;stroke-dasharray:2.0,2.0;" x1="79.5" x2="370.5" y1="145.3125" y2="145.3125"/><text fill="#000000" font-family="sans-serif" font-size="13" font-weight="bold" lengthAdjust="spacing" textLength="7" x="91.5" y="140.4561">2</text><text fill="#000000" font-family="sans-serif" font-size="13" lengthAdjust="spacing" textLength="257" x="102.5" y="140.4561">Solicita os dados necessários para o registo</text><polygon fill="#181818" points="354.5,171.6641,364.5,175.6641,354.5,179.6641,358.5,175.6641" style="stroke:#181818;stroke-width:1.0;"/><line style="stroke:#181818;stroke-width:1.0;" x1="74.5" x2="360.5" y1="175.6641" y2="175.6641"/><text fill="#000000" font-family="sans-serif" font-size="13" font-weight="bold" lengthAdjust="spacing" textLength="7" x="81.5" y="170.8076">3</text><text fill="#000000" font-family="sans-serif" font-size="13" lengthAdjust="spacing" textLength="169" x="92.5" y="170.8076">Introduz os dados solicitados</text><polygon fill="#181818" points="85.5,202.0156,75.5,206.0156,85.5,210.0156,81.5,206.0156" style="stroke:#181818;stroke-width:1.0;"/><line style="stroke:#181818;stroke-width:1.0;stroke-dasharray:2.0,2.0;" x1="79.5" x2="370.5" y1="206.0156" y2="206.0156"/><text fill="#000000" font-family="sans-serif" font-size="13" font-weight="bold" lengthAdjust="spacing" textLength="7" x="91.5" y="201.1592">4</text><text fill="#000000" font-family="sans-serif" font-size="13" lengthAdjust="spacing" textLength="253" x="102.5" y="201.1592">Solicita a confirmação dos dados de registo</text><polygon fill="#181818" points="354.5,232.3672,364.5,236.3672,354.5,240.3672,358.5,236.3672" style="stroke:#181818;stroke-width:1.0;"/><line style="stroke:#181818;stroke-width:1.0;" x1="74.5" x2="360.5" y1="236.3672" y2="236.3672"/><text fill="#000000" font-family="sans-serif" font-size="13" font-weight="bold" lengthAdjust="spacing" textLength="7" x="81.5" y="231.5107">5</text><text fill="#000000" font-family="sans-serif" font-size="13" lengthAdjust="spacing" textLength="169" x="92.5" y="231.5107">Confirma os dados do registo</text><polygon fill="#181818" points="518.5,262.7188,528.5,266.7188,518.5,270.7188,522.5,266.7188" style="stroke:#181818;stroke-width:1.0;"/><line style="stroke:#181818;stroke-width:1.0;" x1="376.5" x2="524.5" y1="266.7188" y2="266.7188"/><text fill="#000000" font-family="sans-serif" font-size="13" font-weight="bold" lengthAdjust="spacing" textLength="7" x="383.5" y="261.8623">6</text><text fill="#000000" font-family="sans-serif" font-size="13" lengthAdjust="spacing" textLength="87" x="394.5" y="261.8623">GET armazens</text><polygon fill="#181818" points="387.5,293.0703,377.5,297.0703,387.5,301.0703,383.5,297.0703" style="stroke:#181818;stroke-width:1.0;"/><line style="stroke:#181818;stroke-width:1.0;stroke-dasharray:2.0,2.0;" x1="381.5" x2="534.5" y1="297.0703" y2="297.0703"/><text fill="#000000" font-family="sans-serif" font-size="13" font-weight="bold" lengthAdjust="spacing" textLength="7" x="393.5" y="292.2139">7</text><text fill="#000000" font-family="sans-serif" font-size="13" lengthAdjust="spacing" textLength="119" x="404.5" y="292.2139">armazensExistentes</text><polygon fill="#181818" points="652.5,323.4219,662.5,327.4219,652.5,331.4219,656.5,327.4219" style="stroke:#181818;stroke-width:1.0;"/><line style="stroke:#181818;stroke-width:1.0;" x1="376.5" x2="658.5" y1="327.4219" y2="327.4219"/><text fill="#000000" font-family="sans-serif" font-size="13" font-weight="bold" lengthAdjust="spacing" textLength="7" x="383.5" y="322.5654">8</text><text fill="#000000" font-family="sans-serif" font-size="13" lengthAdjust="spacing" textLength="89" x="394.5" y="322.5654">POST percurso</text><line style="stroke:#181818;stroke-width:1.0;" x1="674.5" x2="716.5" y1="357.7734" y2="357.7734"/><line style="stroke:#181818;stroke-width:1.0;" x1="716.5" x2="716.5" y1="357.7734" y2="370.7734"/><line style="stroke:#181818;stroke-width:1.0;" x1="675.5" x2="716.5" y1="370.7734" y2="370.7734"/><polygon fill="#181818" points="685.5,366.7734,675.5,370.7734,685.5,374.7734,681.5,370.7734" style="stroke:#181818;stroke-width:1.0;"/><text fill="#000000" font-family="sans-serif" font-size="13" font-weight="bold" lengthAdjust="spacing" textLength="7" x="681.5" y="352.917">9</text><text fill="#000000" font-family="sans-serif" font-size="13" lengthAdjust="spacing" textLength="135" x="692.5" y="352.917">criarPercurso(percurso)</text><polygon fill="#181818" points="387.5,397.125,377.5,401.125,387.5,405.125,383.5,401.125" style="stroke:#181818;stroke-width:1.0;"/><line style="stroke:#181818;stroke-width:1.0;stroke-dasharray:2.0,2.0;" x1="381.5" x2="668.5" y1="401.125" y2="401.125"/><text fill="#000000" font-family="sans-serif" font-size="13" font-weight="bold" lengthAdjust="spacing" textLength="14" x="393.5" y="396.2686">10</text><text fill="#000000" font-family="sans-serif" font-size="13" lengthAdjust="spacing" textLength="109" x="411.5" y="396.2686">percurso publicado</text><polygon fill="#181818" points="80.5,427.4766,70.5,431.4766,80.5,435.4766,76.5,431.4766" style="stroke:#181818;stroke-width:1.0;"/><line style="stroke:#181818;stroke-width:1.0;stroke-dasharray:2.0,2.0;" x1="74.5" x2="370.5" y1="431.4766" y2="431.4766"/><text fill="#000000" font-family="sans-serif" font-size="13" font-weight="bold" lengthAdjust="spacing" textLength="14" x="86.5" y="426.6201">11</text><text fill="#000000" font-family="sans-serif" font-size="13" lengthAdjust="spacing" textLength="181" x="104.5" y="426.6201">Informa o sucesso da operação</text><!--MD5=[750fedc8906277dea6adc28decd3668f]
@startuml
autonumber

actor "Gestor de Logística" as gl
participant "<<System (C4)>>\nVisualização" as SYSTEM
participant "<<System (C4)>>\nMDA" as MDA
participant "<<System (C4)>>\nMDL" as SYSTEM2

activate gl
gl -> SYSTEM:  Inicia o processo de registo de um percurso
activate SYSTEM
SYSTEM - -> gl: Solicita os dados necessários para o registo
deactivate SYSTEM
gl -> SYSTEM : Introduz os dados solicitados
activate SYSTEM 
SYSTEM - -> gl: Solicita a confirmação dos dados de registo
deactivate SYSTEM
gl -> SYSTEM : Confirma os dados do registo
activate SYSTEM
SYSTEM -> MDA : GET armazens
activate MDA
MDA - -> SYSTEM : armazensExistentes
deactivate MDA
SYSTEM -> SYSTEM2 : POST percurso
activate SYSTEM2
SYSTEM2 -> SYSTEM2 : criarPercurso(percurso)
SYSTEM2 - -> SYSTEM : percurso publicado 
deactivate SYSTEM2
SYSTEM - -> gl: Informa o sucesso da operação
deactivate SYSTEM
deactivate gl

@enduml

PlantUML version 1.2022.7(Mon Aug 22 18:01:30 BST 2022)
(GPL source distribution)
Java Runtime: OpenJDK Runtime Environment
JVM: OpenJDK 64-Bit Server VM
Default Encoding: Cp1252
Language: pt
Country: PT
--></g></svg>