<?xml version="1.0" encoding="UTF-8" standalone="no"?><svg xmlns="http://www.w3.org/2000/svg" xmlns:xlink="http://www.w3.org/1999/xlink" contentStyleType="text/css" height="435px" preserveAspectRatio="none" style="width:764px;height:435px;background:#FFFFFF;" version="1.1" viewBox="0 0 764 435" width="764px" zoomAndPan="magnify"><defs/><g><rect fill="#FFFFFF" height="242.8125" style="stroke:#181818;stroke-width:1.0;" width="10" x="64.5" y="92.6094"/><rect fill="#FFFFFF" height="220.4609" style="stroke:#181818;stroke-width:1.0;" width="10" x="441.5" y="114.9609"/><rect fill="#FFFFFF" height="134.4063" style="stroke:#181818;stroke-width:1.0;" width="10" x="680.5" y="170.6641"/><rect fill="none" height="145.7578" style="stroke:#000000;stroke-width:1.5;" width="383" x="374.5" y="129.9609"/><line style="stroke:#181818;stroke-width:0.5;stroke-dasharray:5.0,5.0;" x1="69" x2="69" y1="82.6094" y2="353.4219"/><line style="stroke:#181818;stroke-width:0.5;stroke-dasharray:5.0,5.0;" x1="446.5" x2="446.5" y1="82.6094" y2="353.4219"/><line style="stroke:#181818;stroke-width:0.5;stroke-dasharray:5.0,5.0;" x1="685.5" x2="685.5" y1="82.6094" y2="353.4219"/><text fill="#000000" font-family="sans-serif" font-size="14" lengthAdjust="spacing" textLength="123" x="5" y="79.5332">Gestor de Logística</text><ellipse cx="69.5" cy="13.5" fill="#E2E2F0" rx="8" ry="8" style="stroke:#181818;stroke-width:0.5;"/><path d="M69.5,21.5 L69.5,48.5 M56.5,29.5 L82.5,29.5 M69.5,48.5 L56.5,63.5 M69.5,48.5 L82.5,63.5 " fill="none" style="stroke:#181818;stroke-width:0.5;"/><text fill="#000000" font-family="sans-serif" font-size="14" lengthAdjust="spacing" textLength="123" x="5" y="366.9551">Gestor de Logística</text><ellipse cx="69.5" cy="378.5313" fill="#E2E2F0" rx="8" ry="8" style="stroke:#181818;stroke-width:0.5;"/><path d="M69.5,386.5313 L69.5,413.5313 M56.5,394.5313 L82.5,394.5313 M69.5,413.5313 L56.5,428.5313 M69.5,413.5313 L82.5,428.5313 " fill="none" style="stroke:#181818;stroke-width:0.5;"/><rect fill="#E2E2F0" height="49.2188" rx="2.5" ry="2.5" style="stroke:#181818;stroke-width:0.5;" width="124" x="384.5" y="32.3906"/><text fill="#000000" font-family="sans-serif" font-size="14" lengthAdjust="spacing" textLength="110" x="391.5" y="53.9238">&lt;&lt;System (C4)&gt;&gt;</text><text fill="#000000" font-family="sans-serif" font-size="14" lengthAdjust="spacing" textLength="78" x="407.5" y="71.5332">Visualização</text><rect fill="#E2E2F0" height="49.2188" rx="2.5" ry="2.5" style="stroke:#181818;stroke-width:0.5;" width="124" x="384.5" y="352.4219"/><text fill="#000000" font-family="sans-serif" font-size="14" lengthAdjust="spacing" textLength="110" x="391.5" y="373.9551">&lt;&lt;System (C4)&gt;&gt;</text><text fill="#000000" font-family="sans-serif" font-size="14" lengthAdjust="spacing" textLength="78" x="407.5" y="391.5645">Visualização</text><rect fill="#E2E2F0" height="49.2188" rx="2.5" ry="2.5" style="stroke:#181818;stroke-width:0.5;" width="124" x="623.5" y="32.3906"/><text fill="#000000" font-family="sans-serif" font-size="14" lengthAdjust="spacing" textLength="110" x="630.5" y="53.9238">&lt;&lt;System (C4)&gt;&gt;</text><text fill="#000000" font-family="sans-serif" font-size="14" lengthAdjust="spacing" textLength="29" x="671" y="71.5332">MDL</text><rect fill="#E2E2F0" height="49.2188" rx="2.5" ry="2.5" style="stroke:#181818;stroke-width:0.5;" width="124" x="623.5" y="352.4219"/><text fill="#000000" font-family="sans-serif" font-size="14" lengthAdjust="spacing" textLength="110" x="630.5" y="373.9551">&lt;&lt;System (C4)&gt;&gt;</text><text fill="#000000" font-family="sans-serif" font-size="14" lengthAdjust="spacing" textLength="29" x="671" y="391.5645">MDL</text><rect fill="#FFFFFF" height="242.8125" style="stroke:#181818;stroke-width:1.0;" width="10" x="64.5" y="92.6094"/><rect fill="#FFFFFF" height="220.4609" style="stroke:#181818;stroke-width:1.0;" width="10" x="441.5" y="114.9609"/><rect fill="#FFFFFF" height="134.4063" style="stroke:#181818;stroke-width:1.0;" width="10" x="680.5" y="170.6641"/><polygon fill="#181818" points="429.5,110.9609,439.5,114.9609,429.5,118.9609,433.5,114.9609" style="stroke:#181818;stroke-width:1.0;"/><line style="stroke:#181818;stroke-width:1.0;" x1="74.5" x2="435.5" y1="114.9609" y2="114.9609"/><text fill="#000000" font-family="sans-serif" font-size="13" font-weight="bold" lengthAdjust="spacing" textLength="7" x="81.5" y="110.1045">1</text><text fill="#000000" font-family="sans-serif" font-size="13" lengthAdjust="spacing" textLength="337" x="92.5" y="110.1045">Solicita a apresentação da informação relativa a percursos</text><path d="M374.5,129.9609 L435.5,129.9609 L435.5,138.3125 L425.5,148.3125 L374.5,148.3125 L374.5,129.9609 " fill="#EEEEEE" style="stroke:#000000;stroke-width:1.5;"/><rect fill="none" height="145.7578" style="stroke:#000000;stroke-width:1.5;" width="383" x="374.5" y="129.9609"/><text fill="#000000" font-family="sans-serif" font-size="13" font-weight="bold" lengthAdjust="spacing" textLength="16" x="389.5" y="144.4561">alt</text><polygon fill="#181818" points="668.5,166.6641,678.5,170.6641,668.5,174.6641,672.5,170.6641" style="stroke:#181818;stroke-width:1.0;"/><line style="stroke:#181818;stroke-width:1.0;" x1="451.5" x2="674.5" y1="170.6641" y2="170.6641"/><text fill="#000000" font-family="sans-serif" font-size="13" font-weight="bold" lengthAdjust="spacing" textLength="7" x="458.5" y="165.8076">2</text><text fill="#000000" font-family="sans-serif" font-size="13" lengthAdjust="spacing" textLength="149" x="469.5" y="165.8076">GET percursosExistentes</text><line style="stroke:#000000;stroke-width:1.0;stroke-dasharray:2.0,2.0;" x1="374.5" x2="757.5" y1="179.6641" y2="179.6641"/><polygon fill="#181818" points="668.5,199.0156,678.5,203.0156,668.5,207.0156,672.5,203.0156" style="stroke:#181818;stroke-width:1.0;"/><line style="stroke:#181818;stroke-width:1.0;" x1="451.5" x2="674.5" y1="203.0156" y2="203.0156"/><text fill="#000000" font-family="sans-serif" font-size="13" font-weight="bold" lengthAdjust="spacing" textLength="7" x="458.5" y="198.1592">3</text><text fill="#000000" font-family="sans-serif" font-size="13" lengthAdjust="spacing" textLength="184" x="469.5" y="198.1592">GET percursosArmazemPartida</text><line style="stroke:#000000;stroke-width:1.0;stroke-dasharray:2.0,2.0;" x1="374.5" x2="757.5" y1="212.0156" y2="212.0156"/><polygon fill="#181818" points="668.5,231.3672,678.5,235.3672,668.5,239.3672,672.5,235.3672" style="stroke:#181818;stroke-width:1.0;"/><line style="stroke:#181818;stroke-width:1.0;" x1="451.5" x2="674.5" y1="235.3672" y2="235.3672"/><text fill="#000000" font-family="sans-serif" font-size="13" font-weight="bold" lengthAdjust="spacing" textLength="7" x="458.5" y="230.5107">4</text><text fill="#000000" font-family="sans-serif" font-size="13" lengthAdjust="spacing" textLength="194" x="469.5" y="230.5107">GET percursosArmazemChegada</text><line style="stroke:#000000;stroke-width:1.0;stroke-dasharray:2.0,2.0;" x1="374.5" x2="757.5" y1="244.3672" y2="244.3672"/><polygon fill="#181818" points="668.5,263.7188,678.5,267.7188,668.5,271.7188,672.5,267.7188" style="stroke:#181818;stroke-width:1.0;"/><line style="stroke:#181818;stroke-width:1.0;" x1="451.5" x2="674.5" y1="267.7188" y2="267.7188"/><text fill="#000000" font-family="sans-serif" font-size="13" font-weight="bold" lengthAdjust="spacing" textLength="7" x="458.5" y="262.8623">5</text><text fill="#000000" font-family="sans-serif" font-size="13" lengthAdjust="spacing" textLength="159" x="469.5" y="262.8623">GET percursoPorArmazens</text><polygon fill="#181818" points="462.5,301.0703,452.5,305.0703,462.5,309.0703,458.5,305.0703" style="stroke:#181818;stroke-width:1.0;"/><line style="stroke:#181818;stroke-width:1.0;stroke-dasharray:2.0,2.0;" x1="456.5" x2="684.5" y1="305.0703" y2="305.0703"/><text fill="#000000" font-family="sans-serif" font-size="13" font-weight="bold" lengthAdjust="spacing" textLength="7" x="468.5" y="300.2139">6</text><text fill="#000000" font-family="sans-serif" font-size="13" lengthAdjust="spacing" textLength="103" x="479.5" y="300.2139">percursos (JSON)</text><polygon fill="#181818" points="80.5,331.4219,70.5,335.4219,80.5,339.4219,76.5,335.4219" style="stroke:#181818;stroke-width:1.0;"/><line style="stroke:#181818;stroke-width:1.0;stroke-dasharray:2.0,2.0;" x1="74.5" x2="445.5" y1="335.4219" y2="335.4219"/><text fill="#000000" font-family="sans-serif" font-size="13" font-weight="bold" lengthAdjust="spacing" textLength="7" x="86.5" y="330.5654">7</text><text fill="#000000" font-family="sans-serif" font-size="13" lengthAdjust="spacing" textLength="170" x="97.5" y="330.5654">apresenta percurso solicitado</text><!--MD5=[44b1a27a3b4662c649b47327c1a2945e]
@startuml SSD US10 - Criar Percurso

autonumber

actor "Gestor de Logística" as GL
participant "<<System (C4)>>\nVisualização" as SYSTEM
participant "<<System (C4)>>\nMDL" as SYSTEM2


activate GL
GL -> SYSTEM : Solicita a apresentação da informação relativa a percursos
activate SYSTEM
alt
SYSTEM -> SYSTEM2 : GET percursosExistentes
activate SYSTEM2
else
SYSTEM -> SYSTEM2 : GET percursosArmazemPartida
else
SYSTEM -> SYSTEM2 : GET percursosArmazemChegada
else
SYSTEM -> SYSTEM2 : GET percursoPorArmazens
end
SYSTEM2 - -> SYSTEM : percursos (JSON)
deactivate SYSTEM2
SYSTEM - -> GL : apresenta percurso solicitado
deactivate SYSTEM
deactivate GL

@enduml

PlantUML version 1.2022.7(Mon Aug 22 18:01:30 BST 2022)
(GPL source distribution)
Java Runtime: OpenJDK Runtime Environment
JVM: OpenJDK 64-Bit Server VM
Default Encoding: Cp1252
Language: pt
Country: PT
--></g></svg>