<?xml version="1.0" encoding="UTF-8" standalone="no"?><svg xmlns="http://www.w3.org/2000/svg" xmlns:xlink="http://www.w3.org/1999/xlink" contentStyleType="text/css" height="440px" preserveAspectRatio="none" style="width:570px;height:440px;background:#FFFFFF;" version="1.1" viewBox="0 0 570 440" width="570px" zoomAndPan="magnify"><defs/><g><rect fill="#FFFFFF" height="247.8125" style="stroke:#181818;stroke-width:1.0;" width="10" x="64.5" y="92.6094"/><rect fill="#FFFFFF" height="30.3516" style="stroke:#181818;stroke-width:1.0;" width="10" x="301.5" y="114.9609"/><rect fill="#FFFFFF" height="30.3516" style="stroke:#181818;stroke-width:1.0;" width="10" x="301.5" y="175.6641"/><rect fill="#FFFFFF" height="104.0547" style="stroke:#181818;stroke-width:1.0;" width="10" x="301.5" y="236.3672"/><rect fill="#FFFFFF" height="36.3516" style="stroke:#181818;stroke-width:1.0;" width="10" x="446.5" y="266.7188"/><line style="stroke:#181818;stroke-width:0.5;stroke-dasharray:5.0,5.0;" x1="69" x2="69" y1="82.6094" y2="358.4219"/><line style="stroke:#181818;stroke-width:0.5;stroke-dasharray:5.0,5.0;" x1="306.5" x2="306.5" y1="82.6094" y2="358.4219"/><line style="stroke:#181818;stroke-width:0.5;stroke-dasharray:5.0,5.0;" x1="451.5" x2="451.5" y1="82.6094" y2="358.4219"/><text fill="#000000" font-family="sans-serif" font-size="14" lengthAdjust="spacing" textLength="123" x="5" y="79.5332">Gestor de Logística</text><ellipse cx="69.5" cy="13.5" fill="#E2E2F0" rx="8" ry="8" style="stroke:#181818;stroke-width:0.5;"/><path d="M69.5,21.5 L69.5,48.5 M56.5,29.5 L82.5,29.5 M69.5,48.5 L56.5,63.5 M69.5,48.5 L82.5,63.5 " fill="none" style="stroke:#181818;stroke-width:0.5;"/><text fill="#000000" font-family="sans-serif" font-size="14" lengthAdjust="spacing" textLength="123" x="5" y="371.9551">Gestor de Logística</text><ellipse cx="69.5" cy="383.5313" fill="#E2E2F0" rx="8" ry="8" style="stroke:#181818;stroke-width:0.5;"/><path d="M69.5,391.5313 L69.5,418.5313 M56.5,399.5313 L82.5,399.5313 M69.5,418.5313 L56.5,433.5313 M69.5,418.5313 L82.5,433.5313 " fill="none" style="stroke:#181818;stroke-width:0.5;"/><rect fill="#E2E2F0" height="49.2188" rx="2.5" ry="2.5" style="stroke:#181818;stroke-width:0.5;" width="124" x="244.5" y="32.3906"/><text fill="#000000" font-family="sans-serif" font-size="14" lengthAdjust="spacing" textLength="110" x="251.5" y="53.9238">&lt;&lt;System (C4)&gt;&gt;</text><text fill="#000000" font-family="sans-serif" font-size="14" lengthAdjust="spacing" textLength="78" x="267.5" y="71.5332">Visualização</text><rect fill="#E2E2F0" height="49.2188" rx="2.5" ry="2.5" style="stroke:#181818;stroke-width:0.5;" width="124" x="244.5" y="357.4219"/><text fill="#000000" font-family="sans-serif" font-size="14" lengthAdjust="spacing" textLength="110" x="251.5" y="378.9551">&lt;&lt;System (C4)&gt;&gt;</text><text fill="#000000" font-family="sans-serif" font-size="14" lengthAdjust="spacing" textLength="78" x="267.5" y="396.5645">Visualização</text><rect fill="#E2E2F0" height="49.2188" rx="2.5" ry="2.5" style="stroke:#181818;stroke-width:0.5;" width="124" x="389.5" y="32.3906"/><text fill="#000000" font-family="sans-serif" font-size="14" lengthAdjust="spacing" textLength="110" x="396.5" y="53.9238">&lt;&lt;System (C4)&gt;&gt;</text><text fill="#000000" font-family="sans-serif" font-size="14" lengthAdjust="spacing" textLength="29" x="437" y="71.5332">MDL</text><rect fill="#E2E2F0" height="49.2188" rx="2.5" ry="2.5" style="stroke:#181818;stroke-width:0.5;" width="124" x="389.5" y="357.4219"/><text fill="#000000" font-family="sans-serif" font-size="14" lengthAdjust="spacing" textLength="110" x="396.5" y="378.9551">&lt;&lt;System (C4)&gt;&gt;</text><text fill="#000000" font-family="sans-serif" font-size="14" lengthAdjust="spacing" textLength="29" x="437" y="396.5645">MDL</text><rect fill="#FFFFFF" height="247.8125" style="stroke:#181818;stroke-width:1.0;" width="10" x="64.5" y="92.6094"/><rect fill="#FFFFFF" height="30.3516" style="stroke:#181818;stroke-width:1.0;" width="10" x="301.5" y="114.9609"/><rect fill="#FFFFFF" height="30.3516" style="stroke:#181818;stroke-width:1.0;" width="10" x="301.5" y="175.6641"/><rect fill="#FFFFFF" height="104.0547" style="stroke:#181818;stroke-width:1.0;" width="10" x="301.5" y="236.3672"/><rect fill="#FFFFFF" height="36.3516" style="stroke:#181818;stroke-width:1.0;" width="10" x="446.5" y="266.7188"/><polygon fill="#181818" points="289.5,110.9609,299.5,114.9609,289.5,118.9609,293.5,114.9609" style="stroke:#181818;stroke-width:1.0;"/><line style="stroke:#181818;stroke-width:1.0;" x1="74.5" x2="295.5" y1="114.9609" y2="114.9609"/><text fill="#000000" font-family="sans-serif" font-size="13" font-weight="bold" lengthAdjust="spacing" textLength="7" x="81.5" y="110.1045">1</text><text fill="#000000" font-family="sans-serif" font-size="13" lengthAdjust="spacing" textLength="195" x="92.5" y="110.1045">Inicia o processo de listar viagens</text><polygon fill="#181818" points="85.5,141.3125,75.5,145.3125,85.5,149.3125,81.5,145.3125" style="stroke:#181818;stroke-width:1.0;"/><line style="stroke:#181818;stroke-width:1.0;stroke-dasharray:2.0,2.0;" x1="79.5" x2="305.5" y1="145.3125" y2="145.3125"/><text fill="#000000" font-family="sans-serif" font-size="13" font-weight="bold" lengthAdjust="spacing" textLength="7" x="91.5" y="140.4561">2</text><text fill="#000000" font-family="sans-serif" font-size="13" lengthAdjust="spacing" textLength="174" x="102.5" y="140.4561">Solicita os dados necessários</text><polygon fill="#181818" points="289.5,171.6641,299.5,175.6641,289.5,179.6641,293.5,175.6641" style="stroke:#181818;stroke-width:1.0;"/><line style="stroke:#181818;stroke-width:1.0;" x1="74.5" x2="295.5" y1="175.6641" y2="175.6641"/><text fill="#000000" font-family="sans-serif" font-size="13" font-weight="bold" lengthAdjust="spacing" textLength="7" x="81.5" y="170.8076">3</text><text fill="#000000" font-family="sans-serif" font-size="13" lengthAdjust="spacing" textLength="169" x="92.5" y="170.8076">Introduz os dados solicitados</text><polygon fill="#181818" points="85.5,202.0156,75.5,206.0156,85.5,210.0156,81.5,206.0156" style="stroke:#181818;stroke-width:1.0;"/><line style="stroke:#181818;stroke-width:1.0;stroke-dasharray:2.0,2.0;" x1="79.5" x2="305.5" y1="206.0156" y2="206.0156"/><text fill="#000000" font-family="sans-serif" font-size="13" font-weight="bold" lengthAdjust="spacing" textLength="7" x="91.5" y="201.1592">4</text><text fill="#000000" font-family="sans-serif" font-size="13" lengthAdjust="spacing" textLength="192" x="102.5" y="201.1592">Solicita a confirmação dos dados</text><polygon fill="#181818" points="289.5,232.3672,299.5,236.3672,289.5,240.3672,293.5,236.3672" style="stroke:#181818;stroke-width:1.0;"/><line style="stroke:#181818;stroke-width:1.0;" x1="74.5" x2="295.5" y1="236.3672" y2="236.3672"/><text fill="#000000" font-family="sans-serif" font-size="13" font-weight="bold" lengthAdjust="spacing" textLength="7" x="81.5" y="231.5107">5</text><text fill="#000000" font-family="sans-serif" font-size="13" lengthAdjust="spacing" textLength="108" x="92.5" y="231.5107">Confirma os dados</text><polygon fill="#181818" points="434.5,262.7188,444.5,266.7188,434.5,270.7188,438.5,266.7188" style="stroke:#181818;stroke-width:1.0;"/><line style="stroke:#181818;stroke-width:1.0;" x1="311.5" x2="440.5" y1="266.7188" y2="266.7188"/><text fill="#000000" font-family="sans-serif" font-size="13" font-weight="bold" lengthAdjust="spacing" textLength="7" x="318.5" y="261.8623">6</text><text fill="#000000" font-family="sans-serif" font-size="13" lengthAdjust="spacing" textLength="105" x="329.5" y="261.8623">GET listarViagens</text><line style="stroke:#181818;stroke-width:1.0;" x1="456.5" x2="498.5" y1="302.0703" y2="302.0703"/><line style="stroke:#181818;stroke-width:1.0;" x1="498.5" x2="498.5" y1="302.0703" y2="315.0703"/><line style="stroke:#181818;stroke-width:1.0;" x1="451.5" x2="498.5" y1="315.0703" y2="315.0703"/><polygon fill="#181818" points="461.5,311.0703,451.5,315.0703,461.5,319.0703,457.5,315.0703" style="stroke:#181818;stroke-width:1.0;"/><text fill="#000000" font-family="sans-serif" font-size="13" font-weight="bold" lengthAdjust="spacing" textLength="7" x="463.5" y="297.2139">7</text><text fill="#000000" font-family="sans-serif" font-size="13" lengthAdjust="spacing" textLength="89" x="474.5" y="297.2139">viagens (JSON)</text><polygon fill="#181818" points="80.5,336.4219,70.5,340.4219,80.5,344.4219,76.5,340.4219" style="stroke:#181818;stroke-width:1.0;"/><line style="stroke:#181818;stroke-width:1.0;stroke-dasharray:2.0,2.0;" x1="74.5" x2="305.5" y1="340.4219" y2="340.4219"/><text fill="#000000" font-family="sans-serif" font-size="13" font-weight="bold" lengthAdjust="spacing" textLength="7" x="86.5" y="335.5654">8</text><text fill="#000000" font-family="sans-serif" font-size="13" lengthAdjust="spacing" textLength="181" x="97.5" y="335.5654">Informa o sucesso da operação</text><!--MD5=[b2d69b70225572cbea1b47be8eeb3fac]
@startuml SSD US10 - Criar Percurso

autonumber


actor "Gestor de Logística" as GL
participant "<<System (C4)>>\nVisualização" as SYSTEM
participant "<<System (C4)>>\nMDL" as SYSTEM2


activate GL
GL -> SYSTEM : Inicia o processo de listar viagens
activate SYSTEM
SYSTEM - -> GL : Solicita os dados necessários
deactivate SYSTEM
GL -> SYSTEM :  Introduz os dados solicitados
activate SYSTEM
SYSTEM - -> GL : Solicita a confirmação dos dados
deactivate SYSTEM
GL -> SYSTEM : Confirma os dados
activate SYSTEM
SYSTEM -> SYSTEM2 : GET listarViagens
activate SYSTEM2
SYSTEM2 -> SYSTEM2 : viagens (JSON)
deactivate SYSTEM2
SYSTEM - -> GL :Informa o sucesso da operação
deactivate SYSTEM




deactivate GL

@enduml

PlantUML version 1.2022.7(Mon Aug 22 18:01:30 BST 2022)
(GPL source distribution)
Java Runtime: OpenJDK Runtime Environment
JVM: OpenJDK 64-Bit Server VM
Default Encoding: Cp1252
Language: pt
Country: PT
--></g></svg>