<?xml version="1.0" encoding="UTF-8" standalone="no"?><svg xmlns="http://www.w3.org/2000/svg" xmlns:xlink="http://www.w3.org/1999/xlink" contentStyleType="text/css" height="395px" preserveAspectRatio="none" style="width:655px;height:395px;background:#FFFFFF;" version="1.1" viewBox="0 0 655 395" width="655px" zoomAndPan="magnify"><defs/><g><rect fill="#FFFFFF" height="278.1641" style="stroke:#181818;stroke-width:1.0;" width="10" x="53.5" y="92.6094"/><rect fill="#FFFFFF" height="30.3516" style="stroke:#181818;stroke-width:1.0;" width="10" x="355.5" y="114.9609"/><rect fill="#FFFFFF" height="30.3516" style="stroke:#181818;stroke-width:1.0;" width="10" x="355.5" y="175.6641"/><rect fill="#FFFFFF" height="134.4063" style="stroke:#181818;stroke-width:1.0;" width="10" x="355.5" y="236.3672"/><rect fill="#FFFFFF" height="73.7031" style="stroke:#181818;stroke-width:1.0;" width="10" x="501.5" y="266.7188"/><line style="stroke:#181818;stroke-width:0.5;stroke-dasharray:5.0,5.0;" x1="58" x2="58" y1="82.6094" y2="388.7734"/><line style="stroke:#181818;stroke-width:0.5;stroke-dasharray:5.0,5.0;" x1="360.5" x2="360.5" y1="82.6094" y2="388.7734"/><line style="stroke:#181818;stroke-width:0.5;stroke-dasharray:5.0,5.0;" x1="506.5" x2="506.5" y1="82.6094" y2="388.7734"/><text fill="#000000" font-family="sans-serif" font-size="14" lengthAdjust="spacing" textLength="101" x="5" y="79.5332">Gestor de Frota</text><ellipse cx="58.5" cy="13.5" fill="#E2E2F0" rx="8" ry="8" style="stroke:#181818;stroke-width:0.5;"/><path d="M58.5,21.5 L58.5,48.5 M45.5,29.5 L71.5,29.5 M58.5,48.5 L45.5,63.5 M58.5,48.5 L71.5,63.5 " fill="none" style="stroke:#181818;stroke-width:0.5;"/><rect fill="#E2E2F0" height="49.2188" rx="2.5" ry="2.5" style="stroke:#181818;stroke-width:0.5;" width="124" x="298.5" y="32.3906"/><text fill="#000000" font-family="sans-serif" font-size="14" lengthAdjust="spacing" textLength="110" x="305.5" y="53.9238">&lt;&lt;System (C4)&gt;&gt;</text><text fill="#000000" font-family="sans-serif" font-size="14" lengthAdjust="spacing" textLength="78" x="321.5" y="71.5332">Visualização</text><rect fill="#E2E2F0" height="49.2188" rx="2.5" ry="2.5" style="stroke:#181818;stroke-width:0.5;" width="124" x="444.5" y="32.3906"/><text fill="#000000" font-family="sans-serif" font-size="14" lengthAdjust="spacing" textLength="110" x="451.5" y="53.9238">&lt;&lt;System (C4)&gt;&gt;</text><text fill="#000000" font-family="sans-serif" font-size="14" lengthAdjust="spacing" textLength="29" x="492" y="71.5332">MDL</text><rect fill="#FFFFFF" height="278.1641" style="stroke:#181818;stroke-width:1.0;" width="10" x="53.5" y="92.6094"/><rect fill="#FFFFFF" height="30.3516" style="stroke:#181818;stroke-width:1.0;" width="10" x="355.5" y="114.9609"/><rect fill="#FFFFFF" height="30.3516" style="stroke:#181818;stroke-width:1.0;" width="10" x="355.5" y="175.6641"/><rect fill="#FFFFFF" height="134.4063" style="stroke:#181818;stroke-width:1.0;" width="10" x="355.5" y="236.3672"/><rect fill="#FFFFFF" height="73.7031" style="stroke:#181818;stroke-width:1.0;" width="10" x="501.5" y="266.7188"/><polygon fill="#181818" points="343.5,110.9609,353.5,114.9609,343.5,118.9609,347.5,114.9609" style="stroke:#181818;stroke-width:1.0;"/><line style="stroke:#181818;stroke-width:1.0;" x1="63.5" x2="349.5" y1="114.9609" y2="114.9609"/><text fill="#000000" font-family="sans-serif" font-size="13" font-weight="bold" lengthAdjust="spacing" textLength="7" x="70.5" y="110.1045">1</text><text fill="#000000" font-family="sans-serif" font-size="13" lengthAdjust="spacing" textLength="245" x="81.5" y="110.1045">Inicia o processo de registo de um camião</text><polygon fill="#181818" points="74.5,141.3125,64.5,145.3125,74.5,149.3125,70.5,145.3125" style="stroke:#181818;stroke-width:1.0;"/><line style="stroke:#181818;stroke-width:1.0;stroke-dasharray:2.0,2.0;" x1="68.5" x2="359.5" y1="145.3125" y2="145.3125"/><text fill="#000000" font-family="sans-serif" font-size="13" font-weight="bold" lengthAdjust="spacing" textLength="7" x="80.5" y="140.4561">2</text><text fill="#000000" font-family="sans-serif" font-size="13" lengthAdjust="spacing" textLength="257" x="91.5" y="140.4561">Solicita os dados necessários para o registo</text><polygon fill="#181818" points="343.5,171.6641,353.5,175.6641,343.5,179.6641,347.5,175.6641" style="stroke:#181818;stroke-width:1.0;"/><line style="stroke:#181818;stroke-width:1.0;" x1="63.5" x2="349.5" y1="175.6641" y2="175.6641"/><text fill="#000000" font-family="sans-serif" font-size="13" font-weight="bold" lengthAdjust="spacing" textLength="7" x="70.5" y="170.8076">3</text><text fill="#000000" font-family="sans-serif" font-size="13" lengthAdjust="spacing" textLength="169" x="81.5" y="170.8076">Introduz os dados solicitados</text><polygon fill="#181818" points="74.5,202.0156,64.5,206.0156,74.5,210.0156,70.5,206.0156" style="stroke:#181818;stroke-width:1.0;"/><line style="stroke:#181818;stroke-width:1.0;stroke-dasharray:2.0,2.0;" x1="68.5" x2="359.5" y1="206.0156" y2="206.0156"/><text fill="#000000" font-family="sans-serif" font-size="13" font-weight="bold" lengthAdjust="spacing" textLength="7" x="80.5" y="201.1592">4</text><text fill="#000000" font-family="sans-serif" font-size="13" lengthAdjust="spacing" textLength="253" x="91.5" y="201.1592">Solicita a confirmação dos dados de registo</text><polygon fill="#181818" points="343.5,232.3672,353.5,236.3672,343.5,240.3672,347.5,236.3672" style="stroke:#181818;stroke-width:1.0;"/><line style="stroke:#181818;stroke-width:1.0;" x1="63.5" x2="349.5" y1="236.3672" y2="236.3672"/><text fill="#000000" font-family="sans-serif" font-size="13" font-weight="bold" lengthAdjust="spacing" textLength="7" x="70.5" y="231.5107">5</text><text fill="#000000" font-family="sans-serif" font-size="13" lengthAdjust="spacing" textLength="169" x="81.5" y="231.5107">Confirma os dados do registo</text><polygon fill="#181818" points="489.5,262.7188,499.5,266.7188,489.5,270.7188,493.5,266.7188" style="stroke:#181818;stroke-width:1.0;"/><line style="stroke:#181818;stroke-width:1.0;" x1="365.5" x2="495.5" y1="266.7188" y2="266.7188"/><text fill="#000000" font-family="sans-serif" font-size="13" font-weight="bold" lengthAdjust="spacing" textLength="7" x="372.5" y="261.8623">6</text><text fill="#000000" font-family="sans-serif" font-size="13" lengthAdjust="spacing" textLength="81" x="383.5" y="261.8623">POST camião</text><line style="stroke:#181818;stroke-width:1.0;" x1="511.5" x2="553.5" y1="297.0703" y2="297.0703"/><line style="stroke:#181818;stroke-width:1.0;" x1="553.5" x2="553.5" y1="297.0703" y2="310.0703"/><line style="stroke:#181818;stroke-width:1.0;" x1="512.5" x2="553.5" y1="310.0703" y2="310.0703"/><polygon fill="#181818" points="522.5,306.0703,512.5,310.0703,522.5,314.0703,518.5,310.0703" style="stroke:#181818;stroke-width:1.0;"/><text fill="#000000" font-family="sans-serif" font-size="13" font-weight="bold" lengthAdjust="spacing" textLength="7" x="518.5" y="292.2139">7</text><text fill="#000000" font-family="sans-serif" font-size="13" lengthAdjust="spacing" textLength="119" x="529.5" y="292.2139">criarCamião(camião)</text><polygon fill="#181818" points="376.5,336.4219,366.5,340.4219,376.5,344.4219,372.5,340.4219" style="stroke:#181818;stroke-width:1.0;"/><line style="stroke:#181818;stroke-width:1.0;stroke-dasharray:2.0,2.0;" x1="370.5" x2="505.5" y1="340.4219" y2="340.4219"/><text fill="#000000" font-family="sans-serif" font-size="13" font-weight="bold" lengthAdjust="spacing" textLength="7" x="382.5" y="335.5654">8</text><text fill="#000000" font-family="sans-serif" font-size="13" lengthAdjust="spacing" textLength="101" x="393.5" y="335.5654">camião publicado</text><polygon fill="#181818" points="69.5,366.7734,59.5,370.7734,69.5,374.7734,65.5,370.7734" style="stroke:#181818;stroke-width:1.0;"/><line style="stroke:#181818;stroke-width:1.0;stroke-dasharray:2.0,2.0;" x1="63.5" x2="359.5" y1="370.7734" y2="370.7734"/><text fill="#000000" font-family="sans-serif" font-size="13" font-weight="bold" lengthAdjust="spacing" textLength="7" x="75.5" y="365.917">9</text><text fill="#000000" font-family="sans-serif" font-size="13" lengthAdjust="spacing" textLength="181" x="86.5" y="365.917">Informa o sucesso da operação</text><!--MD5=[86e95201cd46e76465ba246ee18aa94d]
@startuml
autonumber
hide footbox

actor "Gestor de Frota" as gf
participant "<<System (C4)>>\nVisualização" as SYSTEM
participant "<<System (C4)>>\nMDL" as SYSTEM2

activate gf
gf -> SYSTEM:  Inicia o processo de registo de um camião
activate SYSTEM
SYSTEM - -> gf: Solicita os dados necessários para o registo
deactivate SYSTEM
gf -> SYSTEM : Introduz os dados solicitados
activate SYSTEM 
SYSTEM - -> gf: Solicita a confirmação dos dados de registo
deactivate SYSTEM
gf -> SYSTEM : Confirma os dados do registo
activate SYSTEM 
SYSTEM -> SYSTEM2 : POST camião
activate SYSTEM2
SYSTEM2 -> SYSTEM2 : criarCamião(camião)
SYSTEM2 - -> SYSTEM : camião publicado 
deactivate SYSTEM2
SYSTEM - -> gf: Informa o sucesso da operação
deactivate SYSTEM
deactivate gf

@enduml

PlantUML version 1.2022.7(Mon Aug 22 18:01:30 BST 2022)
(GPL source distribution)
Java Runtime: OpenJDK Runtime Environment
JVM: OpenJDK 64-Bit Server VM
Default Encoding: Cp1252
Language: en
Country: GB
--></g></svg>